<?xml version="1.0" encoding="UTF-8" standalone="no"?>
<!DOCTYPE svg PUBLIC "-//W3C//DTD SVG 1.1//EN" "http://www.w3.org/Graphics/SVG/1.1/DTD/svg11.dtd">
<svg width="100%" height="100%" viewBox="0 0 4096 4096" version="1.1" xmlns="http://www.w3.org/2000/svg" xmlns:xlink="http://www.w3.org/1999/xlink" xml:space="preserve" xmlns:serif="http://www.serif.com/" style="fill-rule:evenodd;clip-rule:evenodd;stroke-linejoin:round;stroke-miterlimit:2;">
    <g transform="matrix(1,0,0,1,2043.18,848.433)">
        <path d="M0,0C2.999,0.004 5.998,0.004 8.997,0.004C45.241,0.03 80.86,2.115 116.824,6.567L120.017,6.954C133.003,8.531 145.928,10.368 158.824,12.567L161.17,12.964C191.046,18.065 221.469,24.099 248.824,37.567L251.264,38.741C263.292,44.576 274.162,51.523 284.824,59.567L286.71,60.977C316.954,83.711 340.963,113.16 356.824,147.567L357.773,149.602C361.428,157.493 364.581,165.327 366.996,173.699C367.698,176.13 368.479,178.496 369.324,180.879C376.836,203.575 380.582,228.179 380.789,252.044C380.815,254.615 380.856,257.183 380.914,259.753C381.476,285.12 380.836,310.565 375.187,335.427C374.778,337.838 374.765,340.126 374.824,342.567L376.949,342.899L379.824,343.379L382.637,343.836C385.645,344.526 388.369,345.529 391.24,346.646C394.579,347.836 397.969,348.822 401.375,349.801L403.486,350.409L407.875,351.667C419.814,355.095 431.578,358.7 443.172,363.18C446.188,364.325 449.16,365.316 452.262,366.192C456.913,367.511 461.276,369.361 465.719,371.258C468.733,372.528 471.766,373.716 474.824,374.879C489.763,380.583 504.557,386.663 519.36,392.71L522.644,394.051L525.833,395.354C528.528,396.447 531.231,397.517 533.937,398.582C539.334,400.737 544.611,403.133 549.887,405.567L553.039,407.019C582.362,420.577 611.269,434.898 639.241,451.08C641.772,452.537 644.315,453.969 646.863,455.395C657.677,461.483 667.86,468.171 677.824,475.567L679.612,476.891C715.031,503.278 738.947,533.407 760.824,571.567L762.035,573.673C763.629,576.446 765.215,579.223 766.793,582.004C768.337,584.723 769.906,587.428 771.48,590.129C779.747,604.364 787.366,618.895 794.824,633.567L796.599,637.05C803.266,650.163 809.746,663.354 815.949,676.692L817.563,680.156C820.175,685.82 822.651,691.503 824.926,697.31C826.272,700.691 827.77,703.999 829.262,707.317C832.062,713.614 834.48,719.948 836.683,726.481C837.775,729.607 837.775,729.607 839.344,732.602C841.231,736.381 842.409,740.25 843.664,744.274C844.553,746.797 845.511,749.094 846.637,751.508C849.591,758.038 851.678,764.884 853.887,771.692C854.54,773.7 855.195,775.707 855.853,777.714C856.449,779.528 857.039,781.345 857.629,783.161C858.873,786.707 860.34,790.115 861.824,793.567C862.313,795.045 862.772,796.534 863.183,798.035L863.866,800.48L864.574,803.067C866.753,810.875 869.053,818.635 871.449,826.379C874.006,834.694 876.306,843.009 878.316,851.472C878.891,853.844 879.496,856.207 880.105,858.571C882.175,866.63 884.215,874.61 885.367,882.864C885.817,885.755 885.817,885.755 886.777,889.285C887.964,893.92 888.695,898.586 889.387,903.317L889.767,905.793C891.219,915.553 891.89,925.108 891.719,934.969C891.32,961.886 891.32,961.886 903.319,985.479C905.67,988.739 907.361,992.255 909.074,995.879C909.707,997.18 910.341,998.481 910.976,999.781L911.902,1001.69C912.811,1003.54 913.751,1005.37 914.703,1007.2C928.595,1033.97 938.937,1062.55 946.527,1091.71C947.668,1096.07 948.989,1100.35 950.387,1104.63C953.437,1114.14 955.666,1123.82 957.824,1133.57L958.579,1136.97C961.956,1152.32 964.74,1167.58 966.54,1183.19C966.927,1186.43 967.403,1189.65 967.887,1192.88L968.824,1199.57L969.344,1202.97C971.293,1217.53 971.13,1232.13 971.085,1246.78C971.073,1250.57 971.08,1254.36 971.092,1258.14C971.099,1261.11 971.097,1264.08 971.092,1267.04C971.09,1268.44 971.092,1269.83 971.097,1271.23C971.121,1280.53 970.303,1289.39 968.824,1298.57C968.543,1300.71 968.27,1302.86 968.008,1305.01L967.631,1308.08L966.881,1314.28L966.508,1317.32L966.181,1320.02C965.825,1322.56 965.335,1325.05 964.824,1327.57C963.966,1335.25 964.589,1340.19 968.922,1346.58C977.104,1359.43 982.373,1374.4 987.824,1388.57L988.672,1390.74C992.009,1399.32 994.977,1407.95 997.648,1416.75C999.348,1422.27 1001.15,1427.74 1003.15,1433.15C1011.58,1456.23 1016.19,1481.33 1019.82,1505.57L1020.34,1508.9C1027.62,1556.63 1028.65,1605.74 1021.82,1653.57C1021.55,1655.64 1021.27,1657.72 1021,1659.8C1019.94,1667.51 1018.6,1675.04 1016.59,1682.56C1015.63,1686.32 1014.83,1690.08 1014.07,1693.88L1013.65,1695.87C1012.48,1701.92 1012.87,1707.23 1015.64,1712.75C1017.28,1716.24 1018.58,1719.71 1019.76,1723.38C1021.07,1727.41 1022.51,1731.3 1024.2,1735.19C1026.38,1740.31 1028.24,1745.49 1030.01,1750.75L1030.77,1752.99C1032.22,1757.39 1033.38,1761.77 1034.29,1766.32C1034.81,1768.67 1034.81,1768.67 1035.75,1771.33C1037,1775.09 1037.97,1778.9 1038.92,1782.75L1039.5,1785.08C1040.11,1787.54 1040.72,1789.99 1041.32,1792.44L1042.55,1797.36C1043.47,1801.08 1044.39,1804.79 1045.31,1808.51C1045.66,1809.92 1046.02,1811.33 1046.38,1812.74C1047.5,1817.14 1048.29,1821.43 1048.82,1825.94C1049.32,1830.11 1049.92,1834.18 1050.77,1838.29C1057.42,1870.79 1059.35,1903.8 1059.15,1936.89C1059.13,1939.91 1059.14,1942.94 1059.14,1945.97C1059.15,1948.96 1059.14,1951.95 1059.13,1954.93C1059.13,1956.32 1059.13,1957.71 1059.13,1959.11C1059.13,1967.88 1058.5,1976.36 1057.3,1985.03C1056.62,1990.05 1056.29,1995.08 1055.95,2000.13C1054.36,2021.26 1051.58,2042.27 1047.4,2063.04C1045.3,2073.89 1045.02,2083.66 1048.03,2094.32C1049.26,2099.37 1049.75,2104.45 1050.3,2109.61C1050.67,2112.41 1051.12,2114.94 1051.79,2117.66C1053.25,2123.99 1053.73,2130.42 1054.32,2136.88L1054.51,2138.95C1054.84,2142.48 1055.16,2146.02 1055.47,2149.55C1055.78,2153.08 1056.12,2156.61 1056.46,2160.14C1060.31,2202.61 1060,2247.92 1049.82,2289.57L1049.29,2291.8C1046.73,2302.21 1042.83,2311.48 1037.73,2320.89C1036.96,2322.31 1036.24,2323.74 1035.52,2325.18C1023.88,2347.85 1000.86,2365.54 977.137,2373.63C952.032,2380.89 924.649,2384.56 898.664,2387.17C888.432,2387.77 888.432,2387.77 878.824,2390.57C877.312,2390.8 875.793,2390.98 874.271,2391.14L871.385,2391.44L868.23,2391.76L864.95,2392.09C861.409,2392.45 857.867,2392.79 854.324,2393.13L850.694,2393.48C835.821,2394.89 821.02,2396.06 806.074,2396L804.01,2396C792.558,2395.96 783.258,2394.2 772.824,2389.57L769.98,2388.32C751.064,2379.51 739.158,2365.29 728.824,2347.57L726.801,2344.15C709.807,2313.98 700.068,2278.76 690.824,2245.57L689.628,2241.31C688.293,2236.57 686.963,2231.82 685.637,2227.07L684.998,2224.78C682.103,2214.42 679.382,2204.02 676.824,2193.57C674.229,2196.75 672.134,2199.7 670.324,2203.38C661.254,2220.31 647.922,2233.91 632.824,2245.57L631.266,2246.78C577.393,2288.57 577.393,2288.57 556.824,2288.57L556.824,2290.57L553.562,2291.7L549.137,2293.25L547.01,2293.99C542.518,2295.57 538.072,2297.24 533.637,2298.97C526.661,2301.66 519.609,2304.09 512.512,2306.44L510.554,2307.09C491.189,2313.51 471.716,2319.05 451.824,2323.57C448.363,2324.36 444.903,2325.16 441.443,2325.95C439.168,2326.47 436.892,2326.99 434.616,2327.51C429.3,2328.73 424.058,2330.04 418.824,2331.57C417.287,2331.9 415.746,2332.22 414.199,2332.5C410.399,2333.23 406.655,2334.09 402.898,2335.01C395.733,2336.67 388.556,2337.66 381.262,2338.57C378.6,2338.91 375.938,2339.25 373.277,2339.6L369.396,2340.1C364.76,2340.71 360.134,2341.37 355.512,2342.07L353.152,2342.42C348.772,2343.09 344.4,2343.8 340.031,2344.53C327.278,2346.66 314.556,2348.36 301.685,2349.62L298.265,2349.95L295.225,2350.24C292.816,2350.44 292.816,2350.44 290.824,2351.57C289.325,2351.78 287.82,2351.95 286.312,2352.09L283.463,2352.37L280.351,2352.65L277.109,2352.96C273.66,2353.29 270.211,2353.62 266.762,2353.94C253.612,2355.18 240.476,2356.45 227.367,2358.07C214.002,2359.71 200.612,2361 187.199,2362.19L183.522,2362.52C164.957,2364.18 146.467,2365.45 127.824,2365.57L127.395,2367.93C125.731,2375.62 119.191,2382.3 112.824,2386.57C104.327,2390.88 96.86,2392.69 87.336,2392.7L85.115,2392.71C82.669,2392.71 80.224,2392.71 77.778,2392.71L72.504,2392.72C67.735,2392.73 62.967,2392.73 58.198,2392.73C55.216,2392.74 52.234,2392.74 49.251,2392.74C38.84,2392.75 28.428,2392.75 18.016,2392.75C8.325,2392.75 -1.367,2392.76 -11.059,2392.78C-19.39,2392.79 -27.722,2392.8 -36.053,2392.8C-41.024,2392.8 -45.996,2392.8 -50.967,2392.81C-55.645,2392.82 -60.324,2392.82 -65.002,2392.81C-66.714,2392.81 -68.426,2392.81 -70.137,2392.82C-93.08,2392.89 -93.08,2392.89 -100.488,2387.19L-102.992,2385.28L-105.176,2383.57L-107.926,2381.69C-111.861,2377.97 -116.009,2373.34 -116.344,2367.78L-116.176,2365.57L-119.305,2365.6C-139.399,2365.76 -159.244,2364.48 -179.238,2362.57L-182.086,2362.3C-184.795,2362.03 -187.503,2361.77 -190.211,2361.5L-192.68,2361.26C-196.881,2360.84 -201.011,2360.27 -205.176,2359.57C-206.843,2359.41 -208.513,2359.28 -210.184,2359.17L-213.113,2358.97L-216.301,2358.75C-232.461,2357.57 -248.534,2355.74 -264.625,2353.86C-267.282,2353.55 -269.941,2353.25 -272.599,2352.94C-277.258,2352.41 -281.916,2351.87 -286.573,2351.32C-288.357,2351.11 -290.142,2350.91 -291.926,2350.7C-301.415,2349.6 -310.841,2348.35 -320.253,2346.72C-326.094,2345.71 -331.949,2344.91 -337.824,2344.14C-349.553,2342.59 -361.171,2340.54 -372.801,2338.38L-376.009,2337.79C-421.99,2329.26 -467.329,2318.21 -511.738,2303.5L-514.034,2302.75C-556.903,2288.57 -600.733,2268.49 -633.679,2237C-634.688,2236.03 -635.702,2235.08 -636.72,2234.12C-648.619,2222.96 -658.762,2209.59 -664.988,2194.38C-665.866,2191.45 -665.866,2191.45 -668.176,2190.57L-668.543,2193.51C-669.177,2197.92 -670.209,2202.19 -671.301,2206.5L-671.957,2209.11C-674.491,2219.03 -677.407,2228.82 -680.312,2238.63C-681.646,2243.16 -682.944,2247.71 -684.238,2252.25L-684.983,2254.86C-686.195,2259.1 -687.393,2263.34 -688.567,2267.59C-695.562,2292.78 -703.585,2318.07 -715.176,2341.57L-716.053,2343.37C-727.298,2366.22 -743.12,2382.88 -767.438,2391.76C-790.848,2399.41 -815.009,2396.86 -839.055,2394.04C-843.591,2393.51 -848.131,2393.03 -852.672,2392.55L-859.974,2391.76L-864.694,2391.26C-872.153,2390.46 -879.539,2389.62 -886.879,2388.03C-891.151,2387.16 -895.479,2386.68 -899.801,2386.13C-907.413,2385.12 -914.935,2383.93 -922.469,2382.44C-926.355,2381.69 -930.256,2381.06 -934.164,2380.44C-983.763,2372.56 -983.763,2372.56 -1003.18,2354.57L-1005.68,2352.34C-1023.16,2335.98 -1033.17,2313.37 -1039.18,2290.57L-1039.75,2288.4C-1041.24,2282.51 -1042.25,2276.57 -1043.18,2270.57L-1043.73,2267.05C-1047.03,2245.06 -1047.58,2223.07 -1047.61,2200.88C-1047.61,2198.74 -1047.62,2196.59 -1047.63,2194.45C-1047.73,2167.48 -1045.9,2140.83 -1041.11,2114.25C-1040.85,2112.76 -1040.6,2111.26 -1040.34,2109.77C-1039.45,2104.64 -1038.56,2099.51 -1037.56,2094.4C-1036.46,2088.74 -1035.82,2083.34 -1035.86,2077.57L-1035.87,2075.14C-1036.04,2065.24 -1037.88,2055.66 -1039.65,2045.96C-1041.24,2036.93 -1042.21,2027.86 -1043.18,2018.75C-1043.51,2015.66 -1043.84,2012.57 -1044.18,2009.49L-1044.42,2007.17C-1044.92,2002.61 -1045.55,1998.09 -1046.24,1993.56C-1049.14,1972.05 -1048.41,1949.91 -1048.43,1928.25L-1048.43,1926.15C-1048.45,1903.5 -1047.86,1881.07 -1045.18,1858.57L-1044.77,1855.15C-1044.1,1849.63 -1043.35,1844.13 -1042.5,1838.64C-1042.22,1836.83 -1041.96,1835.02 -1041.72,1833.2C-1036.01,1792.1 -1024.34,1749.41 -1006.15,1712.06C-1001.44,1700.05 -1007.35,1682.43 -1010.16,1670.3C-1011.2,1665.66 -1011.86,1661.01 -1012.43,1656.29L-1012.75,1653.71C-1012.97,1651.92 -1013.19,1650.13 -1013.41,1648.35C-1013.74,1645.64 -1014.07,1642.93 -1014.41,1640.23L-1015.06,1634.98L-1015.35,1632.57C-1015.63,1630.24 -1015.91,1627.9 -1016.18,1625.57L-1016.46,1623.11C-1017.1,1617.23 -1017.36,1611.41 -1017.41,1605.5L-1017.44,1602.64C-1017.47,1599.57 -1017.48,1596.51 -1017.49,1593.44L-1017.5,1590.25C-1017.51,1569.16 -1015.87,1548.47 -1013.18,1527.57L-1012.72,1524C-1011.62,1515.44 -1010.27,1506.94 -1008.71,1498.45C-1008.35,1496.53 -1008,1494.61 -1007.66,1492.69C-1003.45,1469.23 -997.823,1446.15 -990.176,1423.57L-989.102,1420.35C-984.109,1405.39 -978.958,1390.52 -973.113,1375.88L-972.363,1374C-968.73,1364.93 -964.777,1356.06 -960.121,1347.47C-954.076,1335.72 -957.982,1321.75 -959.613,1309.19C-962.059,1290.15 -963.383,1271.59 -963.363,1252.38L-963.362,1249.13C-963.325,1225.25 -961.633,1202.23 -957.68,1178.65C-956.947,1174.17 -956.294,1169.67 -955.641,1165.18C-955.176,1162.57 -955.176,1162.57 -954.176,1160.57C-953.899,1158.82 -953.655,1157.07 -953.426,1155.32C-951.318,1141.22 -948.011,1127.28 -943.485,1113.76C-942.296,1110.11 -941.34,1106.42 -940.375,1102.71C-938.081,1093.95 -935.354,1085.36 -932.551,1076.75L-931.755,1074.31C-921.487,1042.84 -908.899,1012.12 -893.871,982.621L-892.641,980.184C-891.176,977.567 -891.176,977.567 -889.088,974.608C-881.89,963.891 -882.313,954.354 -882.863,941.754C-882.995,937.956 -883.102,934.159 -883.188,930.36L-883.251,927.563C-883.354,918.942 -882.039,910.955 -880.176,902.567L-878.817,895.836C-878.357,893.683 -877.894,891.531 -877.426,889.379L-876.648,885.79C-875.831,882.047 -875.005,878.307 -874.176,874.567L-873.363,870.886C-867.02,842.376 -859.226,814.614 -849.425,787.098C-848.145,783.48 -846.893,779.853 -845.649,776.223L-844.42,772.64C-843.656,770.411 -842.893,768.18 -842.131,765.95C-840.328,760.719 -838.391,755.635 -836.176,750.567C-834.965,747.241 -833.808,743.9 -832.653,740.555C-830.707,735.141 -828.41,729.866 -826.176,724.567L-823.774,718.797C-814.842,697.458 -805.723,676.087 -795.156,655.496C-793.085,651.439 -791.157,647.316 -789.216,643.195C-784.264,632.689 -778.976,622.479 -773.216,612.396C-771.86,610.011 -770.545,607.604 -769.238,605.192L-767.844,602.637C-766.909,600.916 -765.976,599.194 -765.049,597.468C-755.248,579.217 -744.235,561.894 -732.642,544.737C-731.667,543.294 -730.695,541.85 -729.726,540.405C-723.931,531.77 -717.99,523.442 -711.176,515.567L-709.145,513.199C-706.868,510.608 -704.538,508.08 -702.176,505.567L-700.591,503.879C-681.301,483.51 -657.996,469.046 -634.176,454.567L-631.965,453.223C-619.284,445.554 -606.246,438.546 -593.176,431.567L-590.426,430.094C-581.466,425.301 -572.528,420.563 -563.176,416.567L-556.176,413.567C-554.404,412.756 -552.633,411.944 -550.863,411.129C-547.272,409.486 -543.667,407.942 -539.988,406.504C-536.967,405.319 -534.061,404.053 -531.176,402.567C-526.637,400.233 -521.928,398.416 -517.176,396.567C-515.571,395.922 -513.967,395.276 -512.363,394.629C-508.688,393.158 -504.999,391.729 -501.301,390.317C-497.385,388.82 -493.486,387.294 -489.602,385.715C-479.366,381.559 -469.081,377.689 -458.629,374.11C-452.342,371.949 -446.181,369.577 -440.051,367.004C-432.136,363.772 -424.032,361.083 -415.926,358.379L-413.972,357.725C-406.856,355.345 -399.74,353.085 -392.479,351.188C-388.652,350.155 -384.923,348.853 -381.176,347.567C-378.532,346.665 -375.886,345.771 -373.238,344.879L-371.228,344.192C-366.402,342.567 -366.402,342.567 -364.176,342.567L-364.511,340.19C-366.602,325.337 -368.664,310.493 -370.176,295.567L-370.441,293.457C-371.415,285.2 -371.375,276.93 -371.363,268.629L-371.362,266.231C-371.251,212.415 -360.015,161.477 -329.176,116.567L-328.01,114.847C-321.675,105.539 -314.674,96.958 -307.176,88.567L-305.635,86.834C-276.945,54.717 -241.099,34.988 -200.176,22.567L-197.538,21.762C-183.28,17.475 -168.701,14.214 -153.957,12.129C-150.883,11.672 -147.83,11.165 -144.77,10.629C-130.28,8.13 -115.926,6.723 -101.259,5.78C-97.767,5.538 -94.286,5.231 -90.803,4.884C-87.353,4.541 -83.901,4.211 -80.449,3.882C-78.171,3.663 -75.894,3.438 -73.618,3.209C-49.064,0.768 -24.669,-0.035 0,0ZM488.824,1919.57C485.824,1919.57 485.824,1919.57 483.439,1919.99L480.633,1920.59L477.517,1921.25C464.498,1924.03 451.459,1926.65 438.379,1929.13C435.915,1929.6 433.451,1930.07 430.988,1930.54C423.51,1931.96 416.034,1933.39 408.523,1934.63C405.532,1935.12 402.544,1935.62 399.558,1936.14C386.779,1938.41 374.02,1940.65 361.137,1942.25C356.876,1942.76 352.619,1943.22 348.406,1944.04C342.79,1945.23 337.221,1946.07 331.515,1946.71C329.245,1946.95 326.975,1947.2 324.705,1947.45L321.226,1947.84C317.631,1948.24 314.039,1948.65 310.453,1949.13C302.44,1950.21 294.447,1950.95 286.387,1951.57C279.451,1952.1 272.541,1952.66 265.637,1953.5C254.235,1954.92 242.802,1956.02 231.368,1957.13C229.05,1957.35 226.733,1957.58 224.416,1957.8C200.725,1960.12 177.048,1962.08 153.276,1963.36L150.184,1963.53L144.363,1963.86L141.699,1963.99L139.213,1964.13C135.572,1964.32 135.572,1964.32 128.824,1966.57L128.824,2310.57C141.019,2310.57 152.912,2310.82 165.012,2310.06L168.387,2309.82C184.028,2308.76 199.619,2307.19 215.211,2305.57C220.041,2305.06 224.872,2304.56 229.705,2304.08C240.227,2303.05 250.74,2301.94 261.246,2300.76C264.035,2300.44 266.825,2300.13 269.615,2299.82C280.471,2298.61 291.286,2297.28 302.08,2295.6C307.174,2294.8 312.267,2294.12 317.387,2293.5C320.69,2293.12 323.972,2292.72 327.246,2292.13C334.704,2290.73 342.18,2289.65 349.699,2288.63C356.737,2287.69 363.672,2286.67 370.586,2285.03C375.186,2283.93 379.748,2283.03 384.428,2282.33C389.26,2281.65 394.058,2281.14 398.711,2279.63C402.339,2278.39 405.975,2277.58 409.718,2276.76L412.699,2276.13C419.681,2274.62 426.665,2273.18 433.699,2271.94C437.618,2271.28 441.322,2270.45 445.082,2269.18C449.315,2267.72 453.579,2266.43 457.878,2265.17L460.824,2264.32C466.231,2262.74 471.638,2261.17 477.069,2259.67C489.48,2256.3 501.663,2252.78 513.668,2248.14C516.595,2247.01 519.538,2245.98 522.519,2245C552.134,2235.26 587.193,2218.28 608.543,2195.16C609.757,2193.78 610.975,2192.4 612.226,2191.05C627.969,2174.13 638.166,2153.67 643.949,2131.31L644.824,2127.57C649.189,2110.12 649.362,2093.09 648.923,2075.22L648.824,2071.57C648.538,2060.12 648.538,2060.12 644.824,2024.57C642.824,2024.57 642.824,2024.57 641.379,2025.85C638.96,2028.41 636.536,2030.93 633.902,2033.27C631.088,2035.68 628.319,2038.07 625.703,2040.69C621.844,2044.65 617.957,2048.36 613.637,2051.82C609.821,2054.87 606.184,2058.03 602.621,2061.37C597.923,2065.8 593.234,2070.14 588.199,2074.19C584.808,2076.91 581.537,2079.7 578.348,2082.65C574.12,2086.58 569.871,2090.42 565.387,2094.07C562.964,2096.01 560.543,2097.95 558.193,2099.98L556.492,2101.47C555.352,2102.46 554.213,2103.45 553.074,2104.44C548.91,2108.17 545.034,2110.59 539.824,2112.57C537.787,2105.27 535.896,2097.95 534.072,2090.59C530.271,2075.25 526.415,2059.93 522.532,2044.61L520.699,2037.38C517.344,2024.09 513.94,2010.83 510.203,1997.64C507.645,1988.62 505.272,1979.57 503.058,1970.46C498.9,1953.29 494.343,1936.36 488.824,1919.57ZM851.824,999.567C848.824,999.567 848.824,999.567 846.379,1001.11C834.37,1009.01 834.37,1009.01 822.029,1016.4L816.824,1019.57C798.39,1030.89 779.257,1040.56 759.854,1050.1C756.07,1051.96 752.292,1053.83 748.528,1055.73C741.237,1059.41 733.92,1062.97 726.455,1066.29L723.137,1067.75C716.497,1070.72 709.852,1073.59 703.055,1076.18C700.134,1077.28 697.235,1078.39 694.376,1079.64C689.674,1081.8 684.969,1083.63 680.056,1085.26L677.387,1086.13C673.041,1087.57 668.698,1089.01 664.313,1090.32C660.955,1091.31 657.607,1092.3 654.29,1093.42C641.979,1097.71 629.654,1101.52 617.012,1104.69C605.472,1107.58 594.102,1110.77 582.824,1114.57C583.205,1118.28 584.079,1121.38 585.605,1124.76C587.577,1129.01 589.4,1133.31 591.18,1137.64L592.324,1140.44C594.621,1146.02 596.861,1151.6 598.918,1157.26C599.816,1159.77 600.713,1162.27 601.648,1164.76C611.822,1191.56 618.423,1220.25 623.293,1248.45L623.824,1251.57C625.88,1263.46 627.93,1275.31 628.449,1287.38C628.59,1291.96 628.778,1296.51 629.287,1301.07C630.837,1314.72 631.168,1328.27 631.147,1342L631.137,1345.75C631.129,1365.01 630.686,1384.04 628.578,1403.19C627.933,1408.64 627.352,1414.1 626.824,1419.57C628.49,1419.61 630.158,1419.61 631.824,1419.57C632.827,1418.39 632.827,1418.39 634.728,1418.09L637.258,1417.59L640.124,1417.01C666.14,1411.81 691.813,1405.57 717.261,1398.09C721.444,1396.85 725.626,1395.61 729.828,1394.44C737.809,1392.22 745.655,1389.68 753.5,1387.03C759.946,1384.85 766.392,1382.68 772.897,1380.68C777.656,1379.22 782.424,1377.79 787.074,1376C790.29,1374.75 793.544,1373.65 796.824,1372.57C804.011,1370.22 811.033,1367.51 818.051,1364.7L820.574,1363.69C842.296,1355.02 864.071,1345.92 884.347,1334.18C886.785,1332.76 889.226,1331.34 891.681,1329.94C893.723,1328.78 895.763,1327.61 897.799,1326.44L900.824,1324.69L903.743,1323.03L906.449,1321.45C908.863,1320.06 908.863,1320.06 910.824,1318.57C913.108,1315.25 913.108,1315.25 914.686,1300.97L914.949,1298.5C916.709,1282.09 917.218,1265.72 917.256,1249.21L917.262,1245.38C917.376,1221.73 915.991,1198.35 911.504,1175.09C911.086,1172.92 910.69,1170.75 910.332,1168.58C908.074,1154.26 905.192,1140.14 901.156,1126.21C900.472,1123.86 899.806,1121.5 899.177,1119.13C888.375,1077.48 872.651,1037.24 851.824,999.567ZM359.824,394.567C356.522,399.07 354.278,403.767 352.019,408.866C347.587,418.927 342.953,428.605 336.96,437.828L335.824,439.567C330.313,448.157 324.577,456.496 318.254,464.512L315.824,467.567C311.14,473.557 306.326,479.197 300.887,484.504C298.391,486.887 296.213,488.882 294.508,491.883L293.824,493.567C291.824,493.567 291.824,493.567 289.605,495.711C281.127,504.416 271.323,512.041 261.578,519.272L259.824,520.567C235.954,538.263 210.082,553.182 182.765,564.891C181.451,565.448 180.137,566.007 178.824,566.567C172.794,569.241 166.864,571.64 160.512,573.442C152.824,575.567 152.824,575.567 129.824,582.567L129.824,669.567C147.55,669.644 165.276,669.718 183.002,669.811C194.33,669.87 205.658,669.931 216.986,669.977C254.386,670.128 291.76,670.09 329.116,672.112C338.834,672.648 348.546,672.868 358.277,672.996C399.6,673.469 440.849,675.299 482.113,677.436L484.637,677.567C505.231,678.632 525.817,679.78 546.397,681.093C552.264,681.469 558.132,681.833 564,682.189C567.119,682.378 570.238,682.569 573.357,682.76L579.387,683.129C582.523,683.318 585.66,683.507 588.797,683.7L591.765,683.883C596.4,684.158 600.983,684.45 605.584,685.087C609.698,685.696 613.771,685.876 617.922,686.059L621.199,686.192L624.547,686.348L627.722,686.481C629.422,686.553 631.124,686.596 632.824,686.567C633.824,685.567 633.824,685.567 634.612,683.312C636.711,676.71 639.054,670.258 641.629,663.827C642.366,662.004 643.103,660.182 643.838,658.358C645.518,654.184 647.206,650.013 648.899,645.844L649.824,643.567C658.896,621.197 668,598.857 678.044,576.9L679.238,574.297L681.449,569.442C683.766,564.512 685.651,560.118 685.824,554.567C684.627,552.299 684.627,552.299 680.625,548.453L678.137,546.254L675.414,543.844L672.824,541.567C670.972,539.9 669.115,538.244 667.23,536.614L664.824,534.567C647.553,519.797 628.779,507.274 609.127,495.897L606.824,494.567C572.019,474.169 534.936,458.359 497.648,443.168C493.505,441.481 489.363,439.791 485.232,438.072C480.163,435.949 475.096,433.867 469.949,431.942C467.898,431.176 465.855,430.384 463.824,429.567C460.785,428.023 457.87,426.583 454.66,425.426C452.867,424.851 451.075,424.276 449.285,423.694L447.25,423.028C443.156,421.687 439.086,420.284 435.02,418.864L432.387,417.942C428.457,416.569 424.527,415.199 420.624,413.75C410.767,410.039 400.822,406.965 390.699,404.067C384.823,402.416 379.058,400.734 373.402,398.426C368.94,396.521 364.585,395.488 359.824,394.567ZM-843.176,1000.57C-845.379,1005.57 -847.632,1010.53 -850.113,1015.4C-853.303,1021.65 -856.386,1027.81 -858.863,1034.38C-860.372,1038.48 -861.98,1042.47 -863.801,1046.44C-867.246,1053.82 -870.107,1061.14 -872.613,1068.88C-874.35,1074.25 -876.13,1079.56 -878.25,1084.79C-883.039,1096.55 -883.039,1096.55 -890.496,1125.89C-890.917,1127.55 -891.34,1129.21 -891.766,1130.87C-894.989,1143.4 -898.18,1156.03 -900.238,1168.82C-900.693,1171.75 -901.191,1174.63 -901.856,1177.53C-904.149,1187.29 -905.306,1197.08 -906.43,1207.03C-906.668,1209.21 -906.918,1211.39 -907.176,1213.57C-908.845,1224.75 -909.457,1235.6 -909.449,1246.91C-909.437,1250.01 -909.426,1253.11 -909.437,1256.2C-909.523,1276.93 -908.941,1298.29 -904.176,1318.57C-902.176,1320.57 -902.176,1320.57 -899.477,1321.93C-896.15,1323.52 -896.15,1323.52 -893.031,1325.49C-870.184,1339.7 -845.088,1350.45 -820.14,1360.39L-817.176,1361.57C-810.811,1364.15 -804.416,1366.6 -797.947,1368.92C-795.812,1369.68 -793.676,1370.45 -791.541,1371.21L-788.367,1372.35C-785.328,1373.43 -782.29,1374.53 -779.257,1375.63C-770.055,1379 -760.778,1382.03 -751.418,1384.93C-749.478,1385.53 -747.539,1386.13 -745.6,1386.74C-738.369,1388.98 -731.148,1391.25 -723.828,1393.19C-716.264,1395.11 -708.683,1396.96 -701.301,1399.5C-696.72,1401.09 -692.106,1402.49 -687.449,1403.84L-684.676,1404.63C-680.294,1405.89 -675.912,1407.13 -671.487,1408.24C-666.216,1409.53 -660.974,1410.88 -655.753,1412.36L-653.445,1413.01C-650.293,1413.9 -647.14,1414.8 -643.988,1415.69C-641.595,1416.38 -639.201,1417.06 -636.805,1417.74L-634.508,1418.39C-628.718,1420.07 -623.189,1421.02 -617.176,1421.57C-617.066,1417.9 -617.1,1414.34 -617.457,1410.69C-619.813,1390.4 -620.464,1370.27 -620.43,1349.87L-620.424,1345.77C-620.422,1342.45 -620.414,1339.13 -620.4,1335.82L-620.379,1332.08L-620.366,1328.53L-620.337,1325.22C-620.315,1322.19 -620.152,1319.41 -619.677,1316.43C-619.176,1313.57 -619.176,1313.57 -619,1310.17C-618.318,1290.32 -615.952,1270.06 -611.536,1250.68C-610.792,1247.43 -610.126,1244.24 -609.621,1240.95C-608.049,1228.8 -605.504,1216.96 -602.113,1205.19C-601.185,1202.06 -600.268,1198.95 -599.504,1195.77C-597.559,1187.37 -594.828,1179.27 -592.051,1171.11C-591.132,1168.41 -590.223,1165.71 -589.348,1163C-586.798,1154.98 -584.212,1147.01 -581.026,1139.22L-580.254,1137.35C-579.235,1134.88 -578.207,1132.41 -577.176,1129.94L-575.644,1126.36L-574.238,1123.03C-572.676,1119.39 -571.905,1118.38 -573.176,1114.57L-575.301,1113.76C-589.119,1110.74 -602.867,1107.54 -616.476,1103.68L-618.613,1103.07C-630.339,1099.73 -641.923,1096.09 -653.419,1092.03L-655.613,1091.25C-662.814,1088.7 -669.981,1086.11 -677.024,1083.15C-681.181,1081.38 -685.363,1079.71 -689.579,1078.09C-698.361,1074.72 -707.034,1071.16 -715.632,1067.35L-717.801,1066.38C-746.058,1053.82 -773.864,1040.17 -800.387,1024.25C-802.24,1023.13 -804.095,1022.02 -805.953,1020.91C-812.456,1017.04 -818.956,1013.17 -825.401,1009.2L-827.567,1007.86L-831.613,1005.38C-835.385,1003.01 -838.676,1001.13 -843.176,1000.57ZM-207.824,721.469C-224.093,721.434 -240.307,721.63 -256.562,722.33C-261.869,722.56 -267.171,722.715 -272.482,722.807L-275.358,722.848L-282.119,722.959C-285.676,723.014 -289.232,723.069 -292.789,723.127C-303.089,723.299 -313.39,723.466 -323.691,723.629C-330.166,723.731 -336.642,723.835 -343.117,723.944L-350.492,724.067C-353.987,724.12 -357.482,724.172 -360.976,724.231L-364.194,724.285C-369.46,724.358 -374.666,724.455 -379.901,725.068C-382.584,725.396 -385.178,725.616 -387.886,725.749L-391.562,725.832L-395.786,725.934C-398.07,725.983 -400.355,726.033 -402.64,726.088C-409.274,726.252 -415.908,726.41 -422.543,726.56C-440.566,726.966 -458.544,727.37 -476.517,728.865C-482.32,729.356 -488.108,729.738 -493.927,729.97C-502.161,730.274 -510.369,730.697 -518.587,731.297C-530.139,732.149 -541.662,732.79 -553.238,733.129C-559.884,733.302 -566.502,733.466 -573.125,734.059C-578.808,734.571 -584.482,734.815 -590.184,735.01L-593.926,735.129C-597.549,735.251 -601.173,735.373 -604.796,735.491L-607.176,735.567C-606.703,737.545 -606.2,739.492 -605.582,741.43L-604.917,743.366L-604.158,745.583L-603.34,747.953C-602.465,750.506 -601.589,753.058 -600.711,755.609C-599.81,758.227 -598.911,760.845 -598.012,763.463L-596.278,768.516C-593.172,777.539 -590.109,786.568 -587.336,795.699L-586.176,799.567C-582.008,813.299 -578.592,827.1 -575.57,841.129C-574.613,845.586 -573.616,850.032 -572.586,854.473C-566.538,880.335 -562.64,906.711 -559.067,933.015C-558.679,935.882 -558.292,938.749 -557.886,941.614C-555.164,960.652 -553.623,979.492 -552.952,998.714C-552.648,1007.76 -552.323,1016.79 -551.499,1025.8L-551.246,1028.42C-549.648,1045.5 -543.827,1059.7 -531.688,1072.11C-519.143,1083.76 -508.725,1088.04 -491.598,1087.95C-490.054,1087.94 -488.509,1087.93 -486.965,1087.94C-482.686,1087.95 -478.409,1087.95 -474.13,1087.94C-469.461,1087.92 -464.792,1087.92 -460.122,1087.93C-450.969,1087.93 -441.816,1087.93 -432.664,1087.91C-421.919,1087.9 -411.174,1087.89 -400.429,1087.89C-381.298,1087.89 -362.167,1087.88 -343.035,1087.85C-324.393,1087.83 -305.75,1087.81 -287.108,1087.81L-276.657,1087.81L-273.186,1087.81L-269.724,1087.8C-251.891,1087.8 -234.057,1087.79 -216.224,1087.78C-209.78,1087.77 -203.336,1087.77 -196.893,1087.77C-186.57,1087.76 -176.247,1087.76 -165.925,1087.74C-161.21,1087.74 -156.494,1087.73 -151.779,1087.73C-147.4,1087.73 -143.02,1087.72 -138.641,1087.72L-133.883,1087.71C-131.678,1087.71 -129.473,1087.71 -127.269,1087.7L-125.299,1087.7C-123.258,1087.7 -121.215,1087.67 -119.176,1087.57C-118.176,1086.57 -118.176,1086.57 -118.052,1084.1L-118.053,1080.74C-118.05,1078.76 -118.047,1076.77 -118.051,1074.78C-118.054,1073.31 -118.055,1071.83 -118.055,1070.36C-118.052,1066.31 -118.052,1062.26 -118.057,1058.2C-118.062,1053.77 -118.063,1049.34 -118.062,1044.9C-118.061,1037.23 -118.063,1029.56 -118.068,1021.89C-118.076,1010.68 -118.08,999.48 -118.082,988.276C-118.084,970.133 -118.089,951.991 -118.099,933.848C-118.108,916.153 -118.116,898.459 -118.12,880.764L-118.121,877.457L-118.125,861.012C-118.135,814.53 -118.153,768.048 -118.176,721.567C-132.421,721.544 -146.665,721.527 -160.91,721.516C-167.856,721.511 -174.802,721.506 -181.748,721.495C-187.832,721.484 -193.915,721.476 -199.999,721.473L-207.824,721.469ZM295.824,151.567C295.152,153.899 294.482,156.231 293.824,158.567C288.166,179.814 277.713,200.642 261.527,215.969L259.824,217.567C251.597,225.821 243.223,233.601 233.789,240.461L230.824,242.567C221.205,249.554 210.892,254.972 200.297,260.32L197.824,261.567C181.521,269.961 164.205,275.679 146.262,279.379L143.398,279.932L140.695,280.461C136.671,281.204 136.671,281.204 128.824,284.567L128.824,526.567C131.938,526.122 135.082,525.765 138.121,524.953L140.144,524.254L142.482,523.449L144.949,522.567C188.368,507.1 230.972,482.169 261.637,447.317C263.421,445.2 265.224,443.135 267.105,441.102C313.584,391.108 328.849,322.241 326.923,255.585L326.824,252.567C325.867,216.966 315.174,182.526 297.824,151.567L295.824,151.567ZM-912.176,1376.57C-917.758,1384.94 -917.758,1384.94 -927.379,1408.22C-927.974,1409.67 -928.574,1411.12 -929.176,1412.57C-931.044,1416.81 -932.736,1421.02 -934.192,1425.41L-934.883,1427.54C-935.655,1429.89 -936.425,1432.24 -937.188,1434.59L-937.988,1437.07C-942.229,1450.17 -946.393,1463.26 -949.518,1476.68L-950.176,1479.57C-963.15,1536.13 -968.033,1595 -959.745,1652.64L-959.176,1656.57C-958.664,1660.28 -958.151,1663.99 -957.611,1667.69L-957.113,1671C-956.587,1674.56 -956.028,1678.07 -955.176,1681.57C-953.39,1686.2 -950.776,1687.64 -946.437,1689.61L-944.176,1690.57C-941.858,1691.56 -939.534,1692.53 -937.194,1693.47L-934.738,1694.44C-921.178,1699.92 -907.409,1704.7 -893.334,1708.66L-891.238,1709.25C-872.494,1714.57 -853.656,1719.54 -834.784,1724.38C-832.561,1724.95 -830.338,1725.52 -828.117,1726.1C-817.195,1728.94 -806.198,1731.32 -795.147,1733.6C-793.238,1734 -791.331,1734.39 -789.423,1734.79C-777.297,1737.32 -765.178,1739.89 -752.982,1742.06L-750.113,1742.57C-743.128,1743.79 -736.166,1744.88 -729.113,1745.63C-725.328,1746.03 -721.597,1746.48 -717.863,1747.25C-711.299,1748.78 -704.818,1749.97 -698.133,1750.85L-694.926,1751.25C-687.633,1752.21 -680.534,1752.76 -673.176,1752.57C-672.758,1736.8 -672.155,1721.09 -670.774,1705.38C-670.445,1701.7 -670.129,1698.02 -669.84,1694.33C-669.6,1691.27 -669.358,1688.2 -669.111,1685.13L-668.738,1680.5C-668.03,1671.23 -667.057,1662.16 -665.249,1653.03C-664.575,1649.64 -663.944,1646.28 -663.508,1642.85C-660.433,1617.86 -655.722,1592.37 -648.582,1568.21C-647.887,1565.92 -647.193,1563.63 -646.531,1561.32C-639.953,1538.14 -632.303,1515.12 -623.488,1492.69C-621.216,1487.04 -618.788,1481.69 -618.176,1475.57C-621.094,1473.62 -623.338,1472.95 -626.722,1472.22C-628.272,1471.9 -629.821,1471.58 -631.368,1471.24L-633.867,1470.7C-645.288,1468.27 -656.784,1465.94 -667.988,1462.63C-673.25,1461.06 -678.538,1459.75 -683.886,1458.51C-695.21,1455.87 -706.311,1452.83 -717.406,1449.36C-722.409,1447.79 -727.43,1446.3 -732.462,1444.84L-735.551,1443.94C-740.272,1442.57 -744.992,1441.19 -749.719,1439.84C-756.416,1437.93 -763.106,1436.11 -769.551,1433.44C-771.962,1432.42 -774.278,1431.54 -776.801,1430.83C-781.694,1429.58 -786.282,1428.19 -790.926,1426.19C-795.411,1424.26 -799.911,1422.59 -804.551,1421.07C-816.562,1417.2 -828.332,1412.82 -839.993,1408.01L-842.113,1407.13C-853.11,1402.59 -864.053,1397.95 -874.905,1393.07L-876.863,1392.19C-884.464,1388.8 -891.904,1385.23 -899.195,1381.21C-903.476,1378.78 -907.206,1377.09 -912.176,1376.57ZM-521.176,1137.57C-523.996,1142.95 -526.532,1148.32 -528.676,1154C-529.772,1157.01 -530.897,1159.97 -532.243,1162.87C-535.686,1170.19 -538.527,1177.65 -541.168,1185.29L-541.926,1187.5C-555.034,1225.67 -562.643,1265.31 -566.947,1305.4L-567.176,1307.57C-568.669,1321.57 -569.48,1335.46 -569.498,1349.55C-569.492,1352.77 -569.488,1356 -569.512,1359.23C-569.688,1381.81 -569.179,1408.18 -561.024,1429.61L-560.176,1431.57C-555.692,1442.35 -546.439,1450.04 -537.58,1457.28L-535.738,1458.75C-532.072,1461.73 -529.026,1464.1 -524.176,1464.57L-523.758,1462.47L-523.176,1459.57L-522.563,1456.51L-521.863,1453.13C-521.158,1449.67 -520.384,1446.29 -519.407,1442.9C-516.188,1431.97 -516.188,1431.97 -510.54,1408.75C-509.679,1405.21 -508.817,1401.67 -507.953,1398.13L-506.27,1391.23C-504.667,1384.65 -503.062,1378.08 -501.416,1371.51C-500.045,1366.05 -498.686,1360.6 -497.403,1355.12L-496.926,1353.07L-495.91,1348.72L-495.176,1345.57C-476.466,1353.84 -476.466,1353.84 -461.051,1368.13C-458.564,1370.42 -456.069,1372.65 -453.465,1374.81C-448.883,1378.52 -444.361,1382.24 -439.988,1386.19C-437.761,1388.22 -435.538,1390.25 -433.266,1392.23C-430.106,1394.95 -426.997,1397.72 -423.953,1400.57C-418.598,1405.6 -413.276,1410.59 -407.551,1415.19C-404.16,1417.91 -400.889,1420.7 -397.7,1423.65C-393.457,1427.6 -389.195,1431.43 -384.676,1435.07C-380.7,1438.27 -376.908,1441.59 -373.176,1445.07C-369.288,1448.7 -365.308,1452.09 -361.113,1455.38L-358.453,1457.4C-355.115,1460.58 -353.23,1463.61 -353.102,1468.28C-353.901,1473.79 -354.205,1479.01 -354.176,1484.57C-350.252,1485.01 -346.328,1485.45 -342.404,1485.89L-337.488,1486.44C-316.979,1488.76 -296.446,1490.7 -275.873,1492.37L-272.676,1492.63C-256.131,1493.98 -239.652,1495.05 -223.055,1495.39C-221.428,1495.41 -219.8,1495.46 -218.176,1495.57C-215.204,1496.56 -212.614,1496.79 -209.503,1496.93L-207.188,1497.03C-204.649,1497.15 -202.109,1497.27 -199.57,1497.38C-195.922,1497.55 -192.274,1497.72 -188.627,1497.89L-185.863,1498.02C-177.018,1498.45 -168.194,1499.03 -159.363,1499.69C-148.895,1500.57 -148.895,1500.57 -118.176,1500.57L-118.176,1139.57C-163.381,1139.47 -208.587,1139.37 -253.792,1139.27L-281.477,1139.2L-285.052,1139.19C-303.99,1139.15 -322.928,1139.11 -341.866,1139.07C-361.365,1139.03 -380.864,1138.99 -400.364,1138.94C-412.381,1138.91 -424.399,1138.88 -436.416,1138.86C-444.728,1138.84 -453.04,1138.82 -461.352,1138.8C-466.154,1138.79 -470.956,1138.78 -475.758,1138.77C-480.203,1138.76 -484.647,1138.75 -489.092,1138.74L-493.971,1138.73C-502.462,1138.72 -510.884,1138.66 -519.339,1137.78L-521.176,1137.57ZM-63.176,269.567L-63.176,540.567C-54.505,541.53 -46.02,542.67 -37.345,543.092L-34.918,543.184C-21.284,543.735 -21.284,543.735 8.166,543.7C12.365,543.695 16.563,543.691 20.762,543.697C24.094,543.702 27.427,543.704 30.76,543.702L35.566,543.699C43.696,543.712 51.807,543.669 59.928,543.248L62.215,543.121C65.912,542.922 69.281,542.748 72.824,541.567C73.369,539.122 73.812,536.783 73.949,534.279L73.95,531.892L73.958,529.118L73.951,526.097C73.956,522.684 73.959,519.27 73.957,515.856C73.955,513.351 73.954,510.846 73.955,508.34C73.961,501.522 73.963,494.704 73.96,487.885C73.958,482.819 73.957,477.752 73.957,472.685L73.959,466.123C73.962,452.418 73.96,438.713 73.954,425.008C73.95,413.208 73.949,401.407 73.954,389.607C73.959,375.855 73.962,362.102 73.959,348.35L73.958,343.949L73.958,341.761C73.957,336.688 73.957,331.616 73.959,326.544C73.962,320.303 73.963,314.061 73.959,307.82L73.953,300.127C73.957,296.551 73.96,292.974 73.956,289.398L73.951,286.163L73.958,283.149L73.95,280.367C73.949,276.536 73.475,273.471 72.824,269.567L-63.176,269.567ZM576.824,1495.57C574.824,1495.57 574.824,1495.57 572.449,1497.57C566.366,1502.34 566.366,1502.34 559.883,1506.56C557.933,1507.84 555.987,1509.12 554.047,1510.41L551.574,1512.07L547.824,1514.57C551.869,1535.11 557.117,1555.4 562.949,1575.5C564.6,1581.19 566.188,1586.87 567.613,1592.61C569.758,1601.36 571.983,1610.07 574.296,1618.77L574.824,1620.75C576.935,1628.68 579.072,1636.59 581.449,1644.44C583.441,1651.02 585.123,1657.65 586.762,1664.32C588.421,1671.08 590.137,1677.82 592.076,1684.51C594.192,1691.75 596.215,1698.98 598.023,1706.31C602.305,1723.77 606.988,1741.08 612.512,1758.19C614.491,1764.29 616.356,1770.36 617.949,1776.57C619.792,1783.75 622.215,1790.63 624.824,1797.57L627.824,1797.57C627.845,1789.49 627.862,1781.42 627.873,1773.34C627.878,1769.18 627.882,1765.02 627.893,1760.87C627.969,1733.53 627.982,1706.23 625.269,1678.99L625.012,1676.44C622.685,1652.87 619.278,1630.07 613.48,1607.07C612.723,1604.1 611.963,1601.13 611.23,1598.16C610.467,1595.01 609.693,1591.87 608.894,1588.73C608.537,1587.34 608.18,1585.95 607.824,1584.57C603.778,1568.42 599.004,1552.77 593.254,1537.14C592.004,1533.78 590.77,1530.41 589.576,1527.03C587.302,1520.55 584.909,1514.17 582.185,1507.87L581.012,1505.19C579.62,1501.98 578.227,1498.77 576.824,1495.57ZM-286.176,150.567C-288.603,153.303 -288.603,153.303 -292.081,159.744L-293.113,161.692C-295.437,166.056 -297.626,170.392 -299.426,175.004C-300.205,177.162 -301.007,179.241 -302.066,181.278C-304.411,185.725 -306.113,190.092 -307.509,194.922L-308.238,197.567C-310.333,205.065 -312.191,212.521 -313.468,220.206L-314.176,224.567C-316.345,237.307 -317.561,249.68 -317.488,262.614C-317.457,265.49 -317.426,268.366 -317.416,271.242C-317.412,273.172 -317.406,275.102 -317.396,277.031L-317.379,279.801C-317.351,285.458 -317.106,290.991 -316.421,296.609C-316.23,298.134 -316.067,299.663 -315.914,301.192C-313.471,326.239 -307.314,351.002 -297.27,374.09L-296.176,376.567C-283.938,404.566 -268.023,431.837 -245.802,453.028L-244.176,454.567C-240.725,457.84 -237.238,461.066 -233.685,464.228L-232.176,465.567C-223.386,473.41 -214.176,480.448 -204.421,487.055L-202.176,488.567C-176.551,505.95 -148.063,519.416 -118.176,527.567L-118.176,284.567L-141.176,279.567C-145.176,277.567 -145.176,277.567 -147.863,276.883C-166.253,272.698 -185.146,265.291 -201.373,255.643L-203.176,254.567C-211.619,249.665 -219.905,244.631 -227.789,238.861L-229.863,237.317C-237.765,231.456 -244.342,224.56 -250.86,217.215L-253.176,214.567C-268.862,196.758 -278.729,176.807 -283.582,153.582L-284.176,150.567L-286.176,150.567ZM128.824,721.567L128.824,1087.57C172.788,1087.59 216.752,1087.61 260.716,1087.62L287.634,1087.62L291.11,1087.62C309.528,1087.63 327.946,1087.63 346.364,1087.64C365.327,1087.65 384.289,1087.66 403.252,1087.66C414.939,1087.66 426.626,1087.66 438.313,1087.67C446.396,1087.68 454.479,1087.68 462.563,1087.68C467.231,1087.68 471.9,1087.68 476.569,1087.68C480.892,1087.69 485.216,1087.69 489.54,1087.69L494.278,1087.69C505.361,1087.71 516.262,1088.58 526.234,1083.11L528.824,1081.57C532.821,1079.21 536.35,1076.65 539.824,1073.57C561.119,1051.89 562.554,1027.89 564.007,998.923C564.423,990.486 564.817,982.077 565.887,973.692C566.439,969.413 566.874,965.195 566.996,960.879C567.584,938.729 570.69,916.414 575.306,894.741C576.279,890.219 577.182,885.693 578.008,881.141C582.214,857.827 587.467,834.855 593.637,811.985C594.289,809.568 594.934,807.15 595.57,804.729C598.87,792.152 602.317,779.67 606.326,767.299C607.945,762.309 609.538,757.316 611.04,752.29L611.699,750.067C613.044,745.592 614.091,741.185 614.824,736.567C611.13,736.349 607.436,736.129 603.742,735.905L599.199,735.629C596.978,735.498 594.757,735.367 592.537,735.232L590.41,735.102C587.88,734.95 585.35,734.774 582.824,734.567C579.855,734.051 576.949,733.576 573.942,733.346L570.903,733.209L567.408,733.047C564.837,732.935 562.265,732.82 559.694,732.702C557.615,732.607 555.535,732.512 553.456,732.419C549.085,732.225 544.714,732.028 540.343,731.828L538.133,731.727L533.725,731.525L527.144,731.224C516.884,730.758 506.625,730.269 496.368,729.744C465.061,728.134 433.76,726.605 402.415,726.014C390.652,725.793 378.891,725.525 367.132,725.162L365.058,725.098L356.612,724.836C329.41,723.989 302.216,723.305 275.004,722.955C266.277,722.846 257.551,722.709 248.824,722.567C212.824,721.567 212.824,721.567 128.824,721.567ZM379.824,1538.57C374.364,1538.46 369.313,1539.38 363.91,1539.78L360.769,1539.93L357.059,1540.11C342.388,1540.84 327.78,1541.98 313.155,1543.34C286.072,1545.88 259.018,1547.76 231.852,1549.11C226.367,1549.38 220.883,1549.67 215.4,1549.99C196.258,1551.11 177.114,1552.02 157.953,1552.75L154.848,1552.87L148.937,1553.1L146.243,1553.2L143.681,1553.3C139.947,1553.44 139.947,1553.44 129.824,1554.57L129.824,1912.57C144.045,1912.04 158.09,1911.66 172.23,1910.42C173.694,1910.29 175.159,1910.16 176.624,1910.04C179.85,1909.77 183.075,1909.49 186.3,1909.22C191.423,1908.77 196.547,1908.34 201.672,1907.91C209.706,1907.23 217.739,1906.55 225.771,1905.86C230.279,1905.48 234.787,1905.09 239.295,1904.7C243.876,1904.32 248.457,1903.93 253.037,1903.54L258.211,1903.09C260.652,1902.88 263.093,1902.68 265.534,1902.47L267.749,1902.28C270.117,1902.08 272.463,1901.85 274.824,1901.57C276.789,1900.44 276.789,1900.44 279.06,1900.33C286.414,1899.86 293.668,1898.95 300.957,1897.9C316.013,1895.73 331.078,1893.75 346.197,1892.07L348.385,1891.82L352.457,1891.36C354.583,1891.13 356.707,1890.87 358.824,1890.57C360.846,1889.44 360.846,1889.44 363.398,1889.12L366.726,1888.66L370.546,1888.11C404.631,1883.24 438.351,1876.6 471.824,1868.57C471.868,1866.23 471.864,1863.9 471.824,1861.57C470.85,1858.64 470.096,1855.71 469.365,1852.72C468.97,1851.09 468.573,1849.47 468.174,1847.84L467.536,1845.25C464.053,1831.08 460.556,1816.97 456.16,1803.06C454.36,1797.37 452.741,1791.66 451.262,1785.88C449.808,1780.19 448.252,1774.56 446.545,1768.94C444.477,1762.18 442.489,1755.44 440.824,1748.57C439.632,1743.61 438.304,1738.73 436.816,1733.86C434.132,1725.13 431.666,1716.36 429.34,1707.53C426.707,1697.52 424.01,1687.55 420.979,1677.65C419.119,1671.58 417.362,1665.49 415.637,1659.38C414.52,1655.39 413.439,1651.4 412.12,1647.47C409.887,1641.01 408.132,1634.45 406.399,1627.84C403.299,1615.99 400.217,1604.13 396.551,1592.44C394.484,1586 392.516,1579.54 390.689,1573.02C387.437,1561.41 383.74,1549.98 379.824,1538.57ZM-368.176,1537.57C-370.7,1542.13 -372.339,1546.8 -373.928,1551.76L-374.926,1554.94C-380.19,1571.57 -385.005,1588.32 -389.676,1605.13C-391.908,1613.16 -394.229,1621.16 -396.676,1629.13C-401.429,1644.61 -406.006,1660.13 -410.238,1675.75C-411.938,1682.05 -413.669,1688.34 -415.474,1694.6C-417.356,1701.12 -419.219,1707.64 -420.916,1714.22C-423.13,1722.82 -425.532,1731.37 -428.018,1739.9L-428.613,1741.94C-429.598,1745.32 -430.583,1748.69 -431.569,1752.07C-436.216,1767.97 -440.651,1783.91 -444.944,1799.9C-447.297,1808.67 -449.682,1817.43 -452.194,1826.16C-453.582,1830.98 -454.962,1835.79 -456.322,1840.62L-457.363,1844.32C-459.685,1852.4 -461.753,1860.14 -462.176,1868.57C-460.595,1869.01 -459.013,1869.45 -457.43,1869.89L-455.426,1870.44C-451.755,1871.46 -448.159,1872.39 -444.407,1873.05C-439.342,1873.86 -434.328,1874.71 -429.328,1875.86C-381.124,1887.14 -331.65,1892.71 -282.497,1898.08C-276.77,1898.71 -271.045,1899.32 -265.334,1900.07C-256.611,1901.28 -247.887,1902.27 -239.121,1903.09L-236.613,1903.32C-216.33,1905.2 -196.023,1906.82 -175.714,1908.4C-173.076,1908.61 -170.438,1908.82 -167.801,1909.02C-163.543,1909.36 -159.285,1909.7 -155.026,1910.02L-150.192,1910.39C-147.948,1910.57 -145.705,1910.75 -143.462,1910.92L-141.357,1911.08C-135.053,1911.57 -135.053,1911.57 -118.176,1911.57L-118.176,1554.57C-129.646,1553.47 -140.526,1552.38 -151.937,1552.14C-162.668,1551.96 -173.367,1551.72 -184.051,1550.63C-195.811,1549.43 -195.811,1549.43 -221.557,1548.46C-230.384,1548.13 -239.143,1547.82 -247.895,1546.57C-255.543,1545.44 -263.162,1545 -270.877,1544.62C-273.202,1544.5 -275.527,1544.39 -277.852,1544.27L-282.363,1544.03C-286.139,1543.85 -289.864,1543.61 -293.611,1543.08C-296.958,1542.6 -300.262,1542.29 -303.632,1542.05L-306.028,1541.88C-308.686,1541.69 -311.344,1541.51 -314.003,1541.32L-319.62,1540.93C-325.259,1540.53 -330.898,1540.14 -336.537,1539.75L-341.639,1539.4C-350.484,1538.78 -359.33,1538.17 -368.176,1537.57ZM-62.176,592.567L-62.176,2339.57C-53.902,2340.12 -45.933,2340.68 -37.694,2340.69L-34.457,2340.68C-30.76,2340.68 -27.063,2340.68 -23.366,2340.67C-20.071,2340.67 -16.776,2340.66 -13.481,2340.66C-7.245,2340.66 -1.01,2340.65 5.225,2340.64C12.371,2340.63 19.517,2340.62 26.663,2340.62C42.05,2340.61 57.437,2340.59 72.824,2340.57C73.676,2334.96 73.943,2329.51 73.956,2323.84L73.948,2320.43C73.952,2316.52 73.956,2312.62 73.951,2308.71C73.947,2305.08 73.947,2301.44 73.949,2297.8C73.953,2291.39 73.953,2284.99 73.95,2278.58C73.945,2268.91 73.944,2259.25 73.946,2249.59C73.949,2233.13 73.948,2216.67 73.944,2200.21C73.94,2183.45 73.937,2166.7 73.937,2149.94L73.937,2146.74L73.938,2130.57C73.939,2091.53 73.936,2052.49 73.93,2013.46C73.924,1974.69 73.92,1935.92 73.919,1897.16L73.919,1893.52L73.918,1860.56L73.915,1778.65L73.915,1774.88C73.913,1714.37 73.907,1653.86 73.9,1593.34L73.893,1530.3L73.893,1526.35C73.886,1465.75 73.882,1405.15 73.879,1344.55L73.879,1332.75L73.875,1254.5L73.867,1098.74L73.866,1091.32C73.86,979.921 73.851,868.527 73.84,757.134L73.84,753.983L73.824,594.567C63.383,594.588 52.943,594.605 42.502,594.615C37.151,594.62 31.801,594.625 26.45,594.635C21.237,594.646 16.025,594.656 10.812,594.66L4.781,594.664C-5.399,594.693 -15.564,594.687 -25.737,594.251L-28.486,594.123C-32.416,593.942 -36.345,593.794 -40.252,593.309C-45.859,592.567 -45.859,592.567 -62.176,592.567ZM-478.176,1920.57C-480.26,1925.76 -481.819,1930.85 -483.07,1936.3C-484.424,1942.35 -485.711,1948.38 -487.715,1954.26C-488.643,1956.94 -489.439,1959.56 -490.168,1962.31C-491.446,1967.66 -492.735,1972.99 -494.216,1978.28C-498.038,1991.61 -498.038,1991.61 -504.632,2018.61C-505.283,2021.28 -505.935,2023.94 -506.589,2026.61C-510.412,2042.18 -514.198,2057.76 -517.928,2073.35C-520.931,2085.91 -524.19,2098.28 -528.176,2110.57C-551.844,2099.52 -551.844,2099.52 -571.949,2079.61C-573.358,2078.32 -574.779,2077.03 -576.215,2075.77C-578.962,2073.38 -581.703,2070.99 -584.403,2068.55C-588.708,2064.65 -593.048,2060.8 -597.462,2057.01L-599.301,2055.44C-601.591,2053.48 -603.88,2051.52 -606.176,2049.57C-609.564,2046.73 -612.871,2043.86 -616.013,2040.75L-617.852,2038.88C-619.212,2037.51 -620.57,2036.13 -621.926,2034.75L-623.898,2032.72L-625.785,2030.8C-628.091,2028.42 -630.146,2026.92 -633.176,2025.57C-637.782,2046.18 -638.433,2067.45 -638.431,2088.49L-638.426,2091.5C-638.423,2094.42 -638.417,2097.33 -638.4,2100.24L-638.379,2102.97C-638.362,2106.17 -638.325,2109.37 -638.176,2112.57C-635.356,2145.15 -618.439,2178.15 -593.676,2199.47L-591.176,2201.57C-567.317,2222.41 -538.722,2236.4 -509.373,2247.72L-507.176,2248.57C-485.047,2257.1 -461.764,2263.65 -438.616,2268.7C-433.428,2269.83 -428.262,2271.02 -423.106,2272.28C-409.703,2275.59 -396.336,2278.72 -382.74,2281.12C-380.988,2281.42 -379.237,2281.74 -377.486,2282.05C-366.804,2283.99 -356.108,2285.76 -345.363,2287.32C-337.579,2288.44 -329.809,2289.62 -322.05,2290.9C-292.438,2295.81 -262.831,2299.99 -232.992,2303.26L-230.176,2303.57C-217.851,2304.91 -205.517,2306.15 -193.172,2307.29L-190.176,2307.57C-182.724,2308.26 -175.272,2308.95 -167.819,2309.62L-160.113,2310.32C-156.457,2310.65 -152.8,2310.99 -149.142,2311.31L-145.703,2311.61C-136.46,2312.47 -127.522,2312.57 -118.176,2312.57L-118.176,1965.57C-120.402,1964.45 -120.402,1964.45 -126.5,1964.17L-129.129,1964.07C-131.924,1963.94 -134.719,1963.81 -137.514,1963.69C-140.4,1963.57 -143.286,1963.44 -146.172,1963.32L-151.692,1963.07L-154.296,1962.96L-156.763,1962.85C-158.236,1962.79 -159.707,1962.69 -161.176,1962.57C-164.168,1962.06 -167.111,1961.57 -170.133,1961.3L-173.287,1961.09L-176.92,1960.84C-180.331,1960.62 -183.742,1960.39 -187.152,1960.16L-189.349,1960.01C-214.349,1958.3 -239.318,1956.45 -264.241,1953.83L-267.863,1953.44C-280.421,1952.13 -292.919,1950.74 -305.359,1948.56C-309.834,1947.78 -314.275,1947.14 -318.8,1946.75C-334.181,1945.49 -349.389,1943.03 -364.613,1940.57C-372.808,1939.23 -381.006,1938.02 -389.238,1936.94C-393.861,1936.36 -398.345,1935.78 -402.86,1934.61C-405.394,1933.93 -407.844,1933.47 -410.446,1933.1C-418.396,1932.09 -426.259,1930.92 -434.137,1929.45C-436.156,1929.07 -438.175,1928.69 -440.196,1928.32C-447.66,1926.96 -455.017,1925.43 -462.336,1923.42C-467.667,1921.91 -472.654,1920.95 -478.176,1920.57ZM-568.176,1497.57C-568.778,1499.37 -569.425,1501.16 -570.156,1502.92C-576.089,1516.84 -581.272,1530.97 -585.488,1545.5C-586.553,1549.19 -587.601,1552.88 -588.843,1556.52C-601.986,1593.34 -609.999,1633.36 -614.367,1672.16C-614.761,1675.81 -615.162,1679.46 -615.625,1683.1C-620.491,1720.94 -620.491,1720.94 -617.176,1801.57L-614.176,1801.57C-613.711,1798.43 -613.133,1795.41 -612.309,1792.34C-610.971,1787.83 -609.626,1783.32 -608.457,1778.76C-605.388,1766.16 -602.017,1753.61 -598.278,1741.19C-596.075,1733.88 -594.128,1726.54 -592.301,1719.13C-588.48,1703.63 -584.402,1688.19 -579.957,1672.85C-576.777,1661.9 -573.889,1650.89 -571.067,1639.84C-569.429,1633.42 -567.773,1627.02 -566.059,1620.62C-565.219,1617.49 -564.375,1614.37 -563.597,1611.23C-562.496,1606.65 -561.165,1602.19 -559.765,1597.7C-557.124,1589.25 -554.638,1580.8 -552.551,1572.19C-551.26,1566.86 -549.926,1561.56 -548.355,1556.3C-546.374,1549.74 -544.495,1543.16 -542.738,1536.53L-541.926,1533.44C-540.346,1527.5 -538.887,1521.68 -538.176,1515.57C-541.84,1513.15 -545.504,1510.74 -549.092,1508.22L-551.16,1506.75L-555.426,1503.75C-559.548,1500.79 -562.957,1498.02 -568.176,1497.57ZM-714.176,615.567C-715.188,618.215 -716.275,620.767 -717.529,623.311L-719.082,626.293C-719.966,627.995 -720.851,629.696 -721.738,631.396C-722.368,632.603 -722.997,633.81 -723.625,635.017C-726.73,640.991 -729.845,646.959 -733.008,652.903C-737.391,661.138 -741.612,669.413 -745.563,677.866C-747.275,681.533 -748.996,685.194 -750.754,688.84L-752.453,692.344L-755.926,699.504C-759.061,705.931 -762.134,712.351 -764.875,718.957C-766.138,722.043 -767.415,725.103 -768.774,728.149C-773.591,738.772 -773.591,738.772 -783.406,764.371C-784.7,767.748 -785.999,771.121 -787.336,774.481C-792.837,788.129 -792.837,788.129 -804.304,822.897L-806.176,828.567C-818.027,864.011 -828.838,901.804 -829.77,939.414C-829.176,942.567 -829.176,942.567 -827.16,944.621C-825.533,945.682 -823.915,946.759 -822.352,947.911C-796.891,967.009 -769.476,982.687 -741.127,997.074L-738.176,998.567C-734.652,1000.35 -731.126,1002.13 -727.587,1003.88C-725.782,1004.78 -723.979,1005.67 -722.176,1006.57C-698.915,1018.53 -674.91,1028.74 -650.558,1038.25L-647.176,1039.57C-640.54,1042.16 -633.916,1044.73 -627.14,1046.94C-621.464,1048.76 -615.86,1050.62 -610.363,1052.94C-607.103,1054.4 -604.739,1054.63 -601.176,1054.57C-602.323,1039.94 -603.263,1025.35 -603.624,1010.68C-603.902,999.33 -604.334,988.059 -605.582,976.77C-605.899,974.015 -606.208,971.26 -606.496,968.502C-608.762,946.486 -611.484,924.508 -616.051,902.836C-616.654,900.018 -617.253,897.199 -617.84,894.377C-621.86,875.021 -626.26,855.789 -631.613,836.754C-633.074,831.606 -634.474,826.448 -635.797,821.262C-639.112,808.246 -642.628,795.344 -646.625,782.52C-647.516,779.679 -648.396,776.838 -649.258,773.989C-653.62,759.509 -658.449,745.225 -663.926,731.129C-667.125,722.927 -670.242,714.704 -673.239,706.426C-684.439,675.466 -696.944,644.788 -712.176,615.567L-714.176,615.567ZM-960.176,1741.57C-964.341,1749.91 -967.393,1758.56 -970.397,1767.38C-971.316,1770.09 -972.236,1772.81 -973.167,1775.52C-981.494,1799.74 -987.124,1824.09 -990.112,1849.54L-990.363,1851.69C-993.599,1878.86 -994.501,1906.05 -994.382,1933.38C-994.368,1936.49 -994.361,1939.6 -994.361,1942.71C-994.362,1945.81 -994.36,1948.92 -994.354,1952.03L-994.344,1956.5C-994.337,1969.83 -993.915,1983.12 -992.581,1996.39L-992.363,1998.38C-990.658,2013.99 -988.885,2029.75 -985.501,2045.09L-984.926,2047.57C-984.296,2050.66 -983.596,2052.65 -982.176,2055.57C-978.052,2058.83 -972.954,2060.09 -967.882,2061.14L-965.613,2061.57C-957.951,2063.11 -950.255,2064.44 -942.551,2065.75L-939.478,2066.26L-936.637,2066.74C-935.144,2066.98 -933.654,2067.25 -932.176,2067.57C-931.049,2068.69 -931.049,2068.69 -925.758,2069.72L-923.238,2070.19C-899.331,2074.68 -875.304,2078.77 -851.176,2081.88C-846.023,2082.52 -840.848,2083.05 -835.748,2084.04C-828.444,2085.59 -821.104,2086.59 -813.7,2087.51L-811.238,2087.82C-774.138,2092.43 -736.622,2097.64 -699.176,2097.57L-698.879,2095.12L-698.426,2091.44C-697.9,2087.17 -697.361,2082.9 -696.769,2078.64C-694.499,2062.54 -692.562,2046.44 -690.877,2030.27L-690.551,2027.13C-689.295,2015.09 -688.11,2003.05 -687.094,1990.99C-686.635,1985.34 -686.157,1979.77 -685.113,1974.19C-684.204,1969.36 -683.864,1964.59 -683.613,1959.69C-683.448,1955.95 -683.291,1952.26 -682.68,1948.56C-682.064,1944.9 -681.863,1941.26 -681.676,1937.57C-681.54,1934.89 -681.37,1932.24 -681.176,1929.57C-680.681,1926.64 -680.194,1923.76 -679.917,1920.81L-679.727,1917.95L-679.504,1914.66L-679.274,1911.12C-679.015,1907.26 -678.757,1903.39 -678.505,1899.53L-678.104,1893.39C-677.529,1884.64 -676.961,1875.89 -676.403,1867.14L-676.176,1863.57C-674.968,1844.57 -673.773,1825.62 -674.176,1806.57C-676.344,1805.98 -678.485,1805.51 -680.698,1805.14L-683.66,1804.69C-685.471,1804.42 -687.281,1804.14 -689.092,1803.88L-691.176,1803.57L-698.324,1802.51L-706.098,1801.36L-711.426,1800.57C-714.099,1800.17 -716.773,1799.78 -719.446,1799.38L-722.004,1799C-725.81,1798.45 -729.609,1797.92 -733.361,1797.07C-737.441,1796.09 -741.373,1795.4 -745.561,1795.06C-750.169,1794.69 -754.655,1794.05 -759.203,1793.23L-762.02,1792.71C-765.149,1792.14 -768.277,1791.57 -771.405,1790.99L-774.676,1790.38C-790.25,1787.5 -805.787,1784.56 -821.215,1780.97C-824.329,1780.23 -827.445,1779.51 -830.566,1778.8C-840.538,1776.55 -850.542,1774.42 -860.363,1771.57C-865.322,1770.08 -870.301,1768.74 -875.313,1767.46C-899.527,1761.25 -923.295,1753.58 -946.988,1745.63L-949.629,1744.74L-952.07,1743.91C-954.752,1743.01 -957.421,1742.22 -960.176,1741.57ZM-985.176,2112.57C-986.896,2118.66 -987.851,2124.74 -988.676,2131.02L-989.176,2134.94C-992.013,2156 -993.454,2177.03 -993.401,2198.28C-993.382,2201.77 -993.363,2205.27 -993.361,2208.76C-993.363,2227.29 -994.241,2246.63 -990.813,2264.92L-990.301,2267.38C-988.567,2276.65 -986.463,2285.61 -982.119,2294.03L-980.988,2296.13C-979.452,2298.99 -977.877,2301.8 -976.176,2304.57C-965.773,2319.19 -949.908,2324.64 -933.053,2328.17L-931.176,2328.57C-919.495,2331.19 -919.495,2331.19 -881.689,2336.19C-873.152,2337.32 -864.624,2338.48 -856.115,2339.8C-840.895,2342.17 -825.658,2344.8 -810.233,2345.22L-806.801,2345.25C-801.568,2345.35 -796.964,2345.15 -791.959,2343.52C-777.91,2337.86 -769.005,2328.7 -762.408,2315.15L-761.176,2312.57C-748.306,2285.64 -740.11,2256.77 -733.005,2227.88L-732.373,2225.3L-731.746,2222.76C-730.232,2216.59 -728.608,2210.47 -726.847,2204.37C-724.571,2196.53 -722.402,2188.73 -720.613,2180.77C-719.503,2175.7 -718.411,2170.61 -717.176,2165.57C-716.175,2162.6 -715.218,2160.12 -714.981,2157.01L-715.051,2154.69C-715.083,2153.32 -715.121,2151.94 -715.176,2150.57C-718.815,2149.75 -722.444,2149.28 -726.151,2148.89L-728.449,2148.66C-730.954,2148.41 -733.459,2148.15 -735.965,2147.89C-746.065,2146.87 -756.163,2145.88 -766.223,2144.5C-771.277,2143.8 -776.312,2143.24 -781.397,2142.83C-792.256,2142 -803.057,2140.84 -813.863,2139.49C-817.068,2139.08 -820.273,2138.68 -823.479,2138.28C-827.784,2137.75 -832.089,2137.21 -836.393,2136.67L-841.676,2136C-844.206,2135.69 -846.736,2135.38 -849.265,2135.05L-851.645,2134.75C-856.16,2134.19 -860.587,2133.52 -865.03,2132.53C-872.513,2130.79 -880.037,2129.66 -887.676,2128.87C-894.062,2128.21 -900.319,2127.43 -906.613,2126.13C-911.387,2125.11 -916.147,2124.23 -920.97,2123.49C-927.468,2122.51 -933.927,2121.45 -940.366,2120.13C-955.207,2117.06 -970.166,2114.66 -985.176,2112.57ZM-5.105,55.175C-64.57,54.839 -126.506,56.748 -184.029,73.632C-185.879,74.181 -187.73,74.725 -189.585,75.257C-192.852,76.192 -196.102,77.177 -199.336,78.223C-213.215,82.931 -221.018,89.129 -227.598,102.199L-229.176,105.567L-230.504,108.371C-237.313,125.297 -232.552,143.624 -225.863,159.727C-211.256,190.56 -182.653,209.056 -151.699,220.875L-147.176,222.567C-140.316,225.262 -133.498,227.119 -126.297,228.672C-124.921,228.962 -123.548,229.259 -122.176,229.567C-119.575,230.34 -117.247,230.971 -114.547,231.203C-111.277,230.325 -111.277,230.325 -106.426,225.317L-103.817,222.301C-88.238,215.534 -88.238,215.534 -70.455,216.196C-68.726,216.206 -66.997,216.21 -65.267,216.209C-60.528,216.2 -55.789,216.202 -51.049,216.219C-46.017,216.237 -40.984,216.243 -35.951,216.244C-27.508,216.245 -19.065,216.255 -10.623,216.277C0.273,216.306 11.168,216.323 22.064,216.328C31.53,216.332 40.995,216.341 50.461,216.355L59.521,216.366C64.346,216.371 69.17,216.377 73.995,216.39L79.339,216.406C81.811,216.407 84.282,216.409 86.754,216.417L89.009,216.426C100.21,216.412 107.9,217.891 116.887,224.629C119.168,226.343 121.456,227.967 123.824,229.567C129.936,231.582 129.936,231.582 147.824,225.692L153.824,223.567C176.975,216.497 201.239,203.616 217.883,185.735L219.824,183.567C227.683,175.358 234.601,166.654 238.914,156.031L239.824,153.567C241.075,150.315 242.137,147.092 243.07,143.735C246.384,128.202 244.341,111.011 236.512,97.262C225.142,80.66 225.142,80.66 182.542,71.252L178.824,70.442C171.932,68.936 165.063,67.551 158.074,66.574C154.301,66.067 150.542,65.532 146.794,64.867C136.21,62.988 125.63,61.684 114.933,60.623C111.775,60.316 108.618,60.009 105.461,59.689C100.138,59.148 94.814,58.629 89.485,58.151L82.824,57.567C58.396,55.306 34,55.196 9.484,55.195C4.621,55.196 -0.242,55.197 -5.105,55.175ZM468.824,1440.57C465.949,1442.75 465.949,1442.75 464.109,1444.43C462.862,1445.59 461.614,1446.76 460.359,1447.92C458.701,1449.45 457.043,1450.98 455.387,1452.5C452.612,1455.09 449.841,1457.68 446.986,1460.17C442.348,1464.2 437.769,1468.27 433.318,1472.5L430.762,1474.94C427.452,1477.95 424.306,1480.82 421.824,1484.57C421.368,1487.15 421.549,1488.88 422.144,1491.43L422.824,1493.57L423.875,1497.42C425.62,1502.64 427.358,1507.85 428.797,1513.16C430.435,1519.57 432.209,1525.88 434.242,1532.18C437.025,1540.77 439.671,1549.37 442.074,1558.07C444.868,1568.19 447.739,1578.28 450.659,1588.37L451.387,1590.88C454.298,1600.93 457.223,1610.99 460.262,1621C461.881,1626.34 463.412,1631.67 464.824,1637.07C466.103,1641.96 467.473,1646.82 468.933,1651.66C474.485,1670 479.612,1688.42 484.494,1706.94C486.462,1714.41 488.429,1721.88 490.443,1729.34L491.199,1732.13C492.489,1736.93 493.837,1741.68 495.43,1746.39C496.168,1748.52 496.829,1750.59 497.35,1752.78C498.019,1755.99 498.714,1759.17 499.59,1762.33C501.555,1769.09 503.463,1775.87 505.3,1782.66L506.199,1786C507.69,1791.54 509.18,1797.07 510.614,1802.62C514.641,1818.36 518.853,1834.05 524.133,1849.43C526.83,1857.24 529.085,1865.08 531.199,1873.07C533.19,1880.61 535.249,1888.12 537.555,1895.57C540.001,1903.42 542.33,1911.26 544.262,1919.25C546.248,1927.51 548.527,1935.66 550.887,1943.82C553.026,1951.21 555.14,1958.59 556.949,1966.07C558.335,1971.81 559.962,1977.43 561.699,1983.07C564.125,1990.89 566.128,1998.78 568.012,2006.75L568.732,2009.96L569.43,2012.92C570.028,2015.57 570.028,2015.57 570.824,2017.57L573.824,2018.57C578.705,2014.01 583.561,2009.43 588.719,2005.18C594.21,2000.8 599.358,1996.3 604.254,1991.25C605.603,1989.84 606.954,1988.43 608.329,1987.05C609.372,1986 610.408,1984.95 611.437,1983.88L612.949,1982.32C614.831,1980.45 616.253,1978.75 617.824,1976.57C618.064,1973.45 617.878,1970.82 617.229,1967.77L616.398,1964.9L615.482,1961.69C614.841,1959.5 614.206,1957.32 613.576,1955.13L612.648,1951.9C611.783,1948.91 610.922,1945.92 610.098,1942.92C607.988,1935.11 605.774,1927.33 603.545,1919.55L602.233,1914.97L600.938,1910.44L600.297,1908.2L597.824,1899.57C595.608,1891.86 593.418,1884.15 591.339,1876.41L589.618,1869.98L588.695,1866.54C587.757,1863.04 586.817,1859.54 585.871,1856.04L584.922,1852.53L583.074,1845.69C581.696,1840.61 580.313,1835.53 579.043,1830.42C577.965,1826.04 576.904,1821.66 575.543,1817.35C573.901,1812.34 572.257,1807.35 571.012,1802.22C569.7,1796.2 568.203,1790.36 566.324,1784.5C565.172,1780.92 564.024,1777.34 563.082,1773.69C561.724,1767.93 560.157,1762.26 558.425,1756.6C553.34,1740.07 548.548,1723.51 544.262,1706.75C542.574,1700.15 540.9,1693.55 538.811,1687.06C536.697,1680.61 534.967,1674.18 533.449,1667.57C531.648,1659.71 529.558,1651.98 527.262,1644.25C525.323,1637.74 523.431,1631.24 521.824,1624.63C519.798,1616.26 519.798,1616.26 514.508,1597.55C513.665,1594.57 512.831,1591.59 512.021,1588.61C510.964,1584.68 509.892,1580.79 508.683,1576.91C503.67,1561.53 499.499,1545.87 495.809,1530.13C493.299,1519.34 490.412,1508.74 487.067,1498.18C486.521,1496.46 485.977,1494.74 485.436,1493.01L484.574,1490.25C482.542,1483.75 480.707,1477.22 479.084,1470.61L478.48,1468.12C477.471,1463.99 476.462,1459.86 475.497,1455.71C475.128,1454.13 474.754,1452.54 474.375,1450.96L473.84,1448.73C473.283,1446.25 472.659,1443.98 471.824,1441.57L468.824,1440.57ZM-462.176,1439.57C-464.403,1448.62 -466.745,1457.65 -469.106,1466.67C-469.826,1469.42 -470.546,1472.17 -471.264,1474.92C-473.707,1484.29 -476.174,1493.65 -478.778,1502.97C-480.629,1509.59 -482.438,1516.21 -484.206,1522.85L-485.692,1528.44C-487.123,1533.81 -488.554,1539.18 -489.959,1544.56L-490.66,1547.26L-491.926,1552.13C-492.901,1555.94 -493.918,1559.73 -495.082,1563.5C-497.199,1570.24 -499.113,1576.99 -500.813,1583.85L-501.676,1587.38C-502.58,1591.03 -503.483,1594.68 -504.382,1598.33C-506.818,1608.25 -509.291,1618.14 -512.129,1627.95C-514.797,1637.16 -517.369,1646.39 -519.75,1655.67L-520.32,1657.9C-521.297,1661.72 -522.273,1665.53 -523.238,1669.35C-525.268,1677.39 -527.376,1685.39 -529.746,1693.34C-531.54,1699.35 -533.208,1705.37 -534.748,1711.44C-537.232,1721.31 -539.853,1731.12 -542.738,1740.88C-544.711,1747.53 -546.641,1754.19 -548.444,1760.9C-551.942,1773.95 -555.77,1786.89 -559.875,1799.76C-562.541,1808.04 -564.945,1816.33 -567.113,1824.75C-568.789,1831.29 -570.501,1837.81 -572.377,1844.29C-574.63,1852.03 -576.775,1859.78 -578.784,1867.59C-581.363,1877.65 -583.989,1887.7 -586.888,1897.68C-588.353,1902.72 -589.806,1907.76 -591.243,1912.81C-593.071,1919.24 -594.905,1925.66 -596.785,1932.07C-597.85,1935.69 -598.912,1939.32 -599.969,1942.95C-600.495,1944.76 -601.023,1946.57 -601.551,1948.38C-602.372,1951.15 -603.192,1953.92 -603.998,1956.7L-604.762,1959.34C-605.465,1961.68 -606.139,1964.01 -606.736,1966.38C-607.677,1971.05 -608.188,1974.98 -605.515,1979.17L-603.188,1981.41L-600.623,1983.92L-597.863,1986.5C-592.452,1991.73 -587.016,1996.88 -581.176,2001.63C-577.161,2004.74 -573.437,2008.03 -569.738,2011.5C-566.759,2014.35 -564.038,2016.97 -560.176,2018.57C-558.467,2013.68 -556.956,2008.85 -555.738,2003.82C-554.997,2000.75 -554.222,1997.72 -553.3,1994.7C-550.926,1987.28 -548.891,1979.8 -546.98,1972.25C-543.46,1958.27 -539.796,1944.33 -535.856,1930.46C-534.412,1925.4 -532.979,1920.33 -531.555,1915.26L-530.676,1912.13C-528.258,1903.52 -525.917,1894.89 -523.613,1886.25C-521.793,1879.42 -519.927,1872.62 -517.858,1865.86C-515.714,1858.89 -513.722,1851.93 -511.98,1844.85C-509.288,1833.82 -506.324,1822.92 -503.094,1812.03C-501.898,1808.01 -500.713,1803.99 -499.543,1799.96L-498.977,1798.01L-496.676,1790.07C-494.877,1783.85 -493.091,1777.63 -491.238,1771.43C-487.391,1758.65 -483.934,1745.83 -480.738,1732.88C-477.1,1718.12 -473.228,1703.44 -469.096,1688.81L-468.176,1685.57C-465.928,1677.63 -463.639,1669.71 -461.285,1661.8C-458.513,1652.51 -455.764,1643.21 -453.113,1633.88C-451.885,1629.54 -450.659,1625.21 -449.385,1620.88C-445.561,1608.02 -441.957,1595.11 -438.551,1582.13C-435.925,1572.12 -433.274,1562.13 -430.285,1552.22C-429.49,1549.6 -428.708,1546.98 -427.942,1544.35C-426.333,1538.83 -424.724,1533.31 -422.996,1527.82C-420.676,1520.54 -418.452,1513.23 -416.332,1505.88L-415.363,1502.5C-414.201,1498.54 -413.08,1494.6 -412.176,1490.57C-411.638,1486.17 -411.479,1484.53 -414.082,1480.94L-416.676,1478.57L-419.469,1475.96L-422.176,1473.57C-423.443,1472.44 -424.713,1471.31 -425.988,1470.19C-428.911,1467.68 -431.775,1465.12 -434.607,1462.51L-436.238,1461C-439.232,1458.25 -442.218,1455.48 -445.164,1452.67L-447.207,1450.71L-451.238,1446.88L-453.151,1445.02L-454.961,1443.31C-457.294,1441.06 -458.978,1440.15 -462.176,1439.57ZM967.144,1741.46C966.822,1741.48 966.822,1741.48 962.173,1743.17L960.027,1743.84L957.643,1744.58L955.074,1745.38C950.524,1746.8 945.971,1748.22 941.41,1749.61C936.652,1751.05 931.913,1752.53 927.203,1754.12C900.263,1763.25 872.65,1771.4 844.73,1776.99C840.13,1777.89 835.546,1778.84 830.971,1779.86C815.265,1783.35 799.591,1786.77 783.699,1789.32C776.469,1790.47 769.27,1791.61 762.118,1793.18C753.806,1795.04 745.524,1796.4 737.075,1797.49C733.486,1797.95 729.898,1798.4 726.322,1798.95C712.543,1801.2 698.824,1802.49 684.893,1803.43L682.824,1803.57C682.803,1807.2 682.786,1810.82 682.775,1814.45L682.762,1818.94C682.749,1821.12 682.736,1823.3 682.731,1825.48L682.726,1827.59C682.709,1831.86 682.829,1836 683.264,1840.25C683.794,1845.19 684.207,1850.13 684.598,1855.08L685.174,1862.44L685.646,1868.44C686.201,1875.52 686.763,1882.6 687.325,1889.68L688.009,1898.29L688.178,1900.42C688.49,1904.35 688.802,1908.29 689.112,1912.23C690.804,1933.72 692.464,1955.19 695.207,1976.58C696.339,1985.36 697.283,1994.12 697.949,2002.94C698.246,2007.29 698.488,2011.63 699.235,2015.93C700.788,2023.87 701.755,2031.82 702.68,2039.84C703,2042.66 703.321,2045.48 703.647,2048.29C704.818,2058.37 705.931,2068.45 706.91,2078.55C707.513,2085.01 708.349,2091.24 709.824,2097.57C721.744,2097.78 733.457,2097.31 745.326,2096.2L748.074,2095.94C783.343,2092.71 818.608,2089.06 853.637,2083.79C858.751,2083.02 863.869,2082.27 868.992,2081.56L873.883,2080.88L881.012,2079.88C883.205,2079.58 885.398,2079.28 887.59,2078.97L889.617,2078.68C893.352,2078.16 896.937,2077.54 900.599,2076.63C904.603,2075.6 908.632,2074.77 912.689,2073.97C914.709,2073.57 916.729,2073.18 918.748,2072.78L921.99,2072.14C937.077,2069.17 952.181,2066.25 967.182,2062.87L970.387,2062.13C977.171,2060.58 985.774,2059.56 991.471,2055.35C1004.22,2038.56 1004.22,2038.56 1004.14,1933.83L1004.14,1931.25C1004.13,1925.47 1004.11,1919.67 1004.08,1913.89L1004.06,1911.58C1004.02,1903.34 1003.94,1895.14 1003.08,1886.93C1002.89,1885.21 1002.73,1883.48 1002.59,1881.75C999.225,1838.03 990.067,1795.11 974.732,1753.98L973.699,1751.25C973.093,1749.58 972.467,1747.92 971.816,1746.27C970.467,1743.28 970.284,1742.76 967.144,1741.46ZM-348.176,395.567C-350.652,395.484 -352.867,395.496 -355.289,396.047L-357.488,396.754L-360.141,397.59C-362.318,398.291 -364.498,398.982 -366.68,399.668L-370.551,400.879C-374.258,402.047 -377.966,403.207 -381.692,404.315C-389.391,406.579 -397.19,408.614 -404.613,411.692C-408.244,413.241 -411.893,414.436 -415.676,415.567C-419.66,416.758 -423.52,418.042 -427.363,419.629C-430.66,420.999 -433.933,422.137 -437.363,423.129C-440.169,423.94 -442.727,424.8 -445.426,425.942C-447.648,426.941 -449.866,427.819 -452.156,428.656C-466.472,433.72 -480.576,439.076 -494.576,444.964C-498.322,446.541 -502.066,448.121 -505.838,449.636C-510.392,451.443 -514.916,453.288 -519.401,455.26C-520.72,455.844 -522.041,456.428 -523.361,457.01L-525.344,457.883C-526.62,458.447 -527.898,459.008 -529.176,459.567C-545.37,466.354 -561.282,474.196 -576.524,482.91C-579.036,484.353 -581.555,485.777 -584.09,487.18C-596.142,493.811 -608.076,500.488 -619.528,508.121C-620.743,508.938 -621.959,509.753 -623.176,510.567C-631.031,515.631 -638.488,520.99 -645.778,526.828L-649.176,529.567C-654.835,534.072 -660.532,538.516 -665.539,543.754L-667.176,545.567C-669.767,548.428 -672.194,551.245 -674.176,554.567C-674.816,559.45 -674.026,563.373 -672.266,567.914L-671.113,570.629L-669.766,573.821C-668.587,576.597 -667.413,579.376 -666.242,582.156L-664.176,587.067C-663.195,589.393 -662.213,591.72 -661.234,594.048L-660.176,596.567C-656.66,604.923 -653.249,613.319 -649.892,621.74L-648.33,625.654L-646.016,631.449C-644.695,634.762 -643.374,638.074 -642.047,641.384C-640.769,644.568 -639.493,647.753 -638.248,650.951C-633.782,662.482 -628.927,673.616 -623.176,684.567L-620.5,684.602L-616.863,684.629C-613.524,684.662 -610.249,684.66 -606.922,684.371C-599.477,683.625 -592.023,683.167 -584.554,682.755L-580.07,682.505C-576.066,682.28 -572.061,682.057 -568.057,681.836L-560.809,681.435C-552.186,680.955 -543.563,680.48 -534.94,680.018C-530.952,679.805 -526.964,679.592 -522.976,679.373C-504.552,678.355 -486.144,677.471 -467.695,677.039C-453.822,676.717 -439.981,676.19 -426.122,675.463C-403.586,674.261 -381.064,673.25 -358.496,672.898L-355.787,672.858L-350.621,672.778C-346.295,672.735 -341.989,672.617 -337.67,672.349C-328.261,671.723 -318.874,671.31 -309.447,671.092L-306.914,671.035C-267.104,670.342 -267.104,670.342 -227.288,670.093C-216.91,670.024 -206.532,669.954 -196.154,669.877L-192.344,669.848C-167.615,669.661 -142.897,669.219 -118.176,668.567C-118.155,658.393 -118.138,648.219 -118.127,638.045C-118.122,632.864 -118.117,627.683 -118.107,622.502C-118.096,617.42 -118.086,612.339 -118.083,607.257L-118.078,601.477C-118.07,598.69 -118.063,595.904 -118.062,593.117L-118.062,590.575C-118.05,587.897 -118.081,585.245 -118.176,582.567C-119.27,581.472 -119.27,581.472 -123.935,580.159C-171.424,566.863 -216.315,547.181 -255.309,516.621L-259.176,513.567C-267.195,507.353 -274.424,500.631 -281.463,493.346L-283.176,491.567C-305.099,468.916 -324.602,442.95 -338.285,414.457C-339.963,410.964 -341.748,407.537 -343.573,404.118L-344.676,402.067C-345.84,399.898 -347.006,397.732 -348.176,395.567ZM524.824,1136.57C523.842,1137.76 523.842,1137.76 522,1137.77L519.552,1137.88L516.724,1138L513.562,1138.12C498.115,1138.7 482.67,1138.74 467.215,1138.76C462.766,1138.77 458.318,1138.78 453.869,1138.79C446.137,1138.82 438.404,1138.84 430.671,1138.85C419.424,1138.87 408.177,1138.9 396.93,1138.93C378.674,1138.98 360.419,1139.02 342.163,1139.06C324.4,1139.1 306.637,1139.14 288.874,1139.19L285.532,1139.19L259.127,1139.26L208.883,1139.38L128.824,1139.57L128.824,1501.57C135.446,1501.57 141.929,1501.63 148.513,1501.31L150.781,1501.19L156.252,1500.91C160.499,1500.69 164.745,1500.47 168.992,1500.25C176.133,1499.89 183.275,1499.53 190.416,1499.15C194.621,1498.93 198.827,1498.72 203.032,1498.5C221.861,1497.54 240.669,1496.53 259.462,1495C265.056,1494.54 270.651,1494.15 276.251,1493.78C286.013,1493.14 295.766,1492.44 305.512,1491.57C310.387,1491.12 315.262,1490.68 320.144,1490.32L323.605,1490.07C325.907,1489.9 328.209,1489.73 330.512,1489.57C341.132,1488.85 351.64,1487.81 361.824,1484.57C361.01,1478.26 360.22,1471.93 360.824,1465.57C365.703,1458.34 365.703,1458.34 372.98,1453.09C379.113,1448.35 385.142,1443.52 391.012,1438.44C394.224,1435.66 397.434,1432.88 400.726,1430.2C405.571,1426.3 410.268,1422.3 414.824,1418.07C418.579,1414.57 422.392,1411.23 426.387,1408C430.081,1405.03 433.641,1401.96 437.137,1398.75C442.415,1393.9 447.822,1389.22 453.281,1384.58C455.026,1383.1 456.769,1381.61 458.505,1380.12C468.505,1371.53 478.805,1363.41 489.497,1355.69L491.762,1354.07C496.323,1350.75 500.281,1348.02 505.824,1346.57C505.824,1348.57 505.824,1348.57 506.707,1351.28C510.126,1361.36 512.426,1371.55 514.599,1381.97C516.017,1388.78 517.487,1395.56 519.137,1402.32C520.642,1408.47 522.073,1414.64 523.44,1420.84L524.63,1426.21C525.237,1428.96 525.844,1431.7 526.449,1434.44C527.025,1437.09 527.601,1439.74 528.187,1442.38L528.738,1444.87C529.364,1447.79 530.02,1450.69 530.824,1453.57C531.876,1456.87 532.592,1459.9 535.802,1461.63C538.491,1461.55 538.491,1461.55 543.053,1458.2L545.012,1456.69C550.31,1452.69 555.346,1448.58 559.898,1443.73L561.824,1441.57C570.123,1432.65 572.306,1422.93 574.423,1411.26L574.949,1408.25C578.351,1389.14 579.166,1369.7 579.089,1350.32L579.074,1347.19C579.033,1326.44 579.537,1304.9 576.317,1284.33C575.326,1278.78 574.241,1273.21 573.6,1267.61C572.255,1254.95 569.579,1242.75 566.506,1230.42L565.824,1227.69C565.166,1225.04 564.506,1222.4 563.835,1219.75L563.199,1217.26C562.118,1212.95 561,1208.79 559.235,1204.71C557.788,1201.64 557.788,1201.64 556.867,1198.6C553.32,1186.28 548.88,1174.6 543.412,1163.02L541.824,1159.69C539.406,1154.62 536.887,1149.61 534.289,1144.62L532.762,1141.87C531.414,1139.43 531.414,1139.43 529.824,1137.57C527.203,1136.74 527.203,1136.74 524.824,1136.57ZM922.824,1375.57C918.824,1375.57 918.824,1375.57 916.959,1376.31L915.063,1377.33L912.948,1378.44C911.607,1379.15 910.257,1379.85 908.897,1380.52L906.999,1381.43C885.763,1391.71 864.368,1401.38 842.509,1410.25C839.474,1411.48 836.446,1412.73 833.425,1413.99C828.551,1416.04 823.69,1418.05 818.693,1419.78C814.322,1421.27 809.953,1422.77 805.626,1424.39C787.946,1431.1 769.96,1436.71 751.699,1441.63C744.947,1443.43 738.22,1445.3 731.514,1447.27C709.724,1453.68 687.749,1459 665.59,1463.97L663.515,1464.43C660.806,1465.04 658.097,1465.65 655.387,1466.25C645.456,1468.45 635.632,1470.88 625.824,1473.57C625.824,1476.57 625.824,1476.57 626.996,1479.13C631.87,1488.39 635.556,1497.65 638.824,1507.57C640.421,1512.44 642.033,1517.27 644.012,1522C644.984,1524.33 645.835,1526.61 646.525,1529.03C647.731,1533.72 649.035,1538.33 650.621,1542.91C656.821,1560.66 661.78,1578.74 665.368,1597.21C665.673,1598.79 665.985,1600.37 666.304,1601.94L666.789,1604.32L667.762,1609.13C670.692,1623.47 673.157,1637.76 674.646,1652.32L674.887,1654.69C676.434,1669.56 677.59,1684.42 678.43,1699.34C678.606,1702.72 678.883,1706.03 679.315,1709.39C679.786,1713.01 680.05,1716.62 680.242,1720.27L680.359,1722.66C680.493,1725.24 680.625,1727.82 680.754,1730.41C680.843,1732.19 680.933,1733.98 681.024,1735.77C681.237,1739.91 681.449,1744.06 681.656,1748.2L681.824,1751.57C685.223,1751.62 688.533,1751.6 691.916,1751.25L695.043,1750.8L698.585,1750.3C701.122,1749.93 703.66,1749.56 706.198,1749.2L710.125,1748.65C716.913,1747.69 723.709,1746.8 730.512,1745.94C735.519,1745.33 740.485,1744.67 745.43,1743.66C749.133,1742.9 752.844,1742.19 756.569,1741.53L758.676,1741.16C760.859,1740.78 763.042,1740.4 765.226,1740.02C792.304,1735.29 819.187,1730.12 845.863,1723.44C849.477,1722.53 853.091,1721.62 856.708,1720.73C870.126,1717.39 883.461,1713.93 896.673,1709.85C899.143,1709.08 901.615,1708.33 904.096,1707.6L906.836,1706.81L911.512,1705.44C916.313,1704.07 920.923,1702.59 925.48,1700.54C928.094,1699.33 930.63,1698.28 933.344,1697.29C936.865,1696.12 940.351,1694.88 943.824,1693.57C950.533,1690.58 959.144,1687.75 962.047,1680.52L962.887,1676.82C965.202,1666.73 966.814,1656.49 968.406,1646.27L968.824,1643.57C971.397,1627.38 971.966,1611.53 971.961,1595.16C971.954,1591.39 971.949,1587.62 971.954,1583.86C971.975,1571.7 972.078,1559.56 971.096,1547.43L970.824,1544.57C968.629,1520.59 964.053,1496.82 958.502,1473.42L957.824,1470.57C950.139,1437.74 938.539,1405.42 922.824,1375.57ZM995.824,2111.57C993.199,2111.49 990.764,2111.58 988.164,2111.97L985.274,2112.55L981.976,2113.19L978.437,2113.9C974.648,2114.65 970.859,2115.4 967.07,2116.16C964.457,2116.68 961.844,2117.2 959.23,2117.72C954.275,2118.7 949.32,2119.68 944.367,2120.66L941.021,2121.33L934.824,2122.57L931.947,2123.15L929.286,2123.69C925.574,2124.44 921.86,2125.04 918.108,2125.55C908.884,2126.8 899.683,2128.18 890.487,2129.62L888.449,2129.94C881.608,2131.01 874.767,2132.07 867.938,2133.22C851.717,2135.97 835.554,2138.31 819.189,2139.99C812.651,2140.66 806.112,2141.2 799.68,2142.59C794.616,2143.69 789.548,2144.15 784.39,2144.61C780.983,2144.9 777.577,2145.2 774.172,2145.5L771.988,2145.7C763.066,2146.52 754.163,2147.48 745.261,2148.48L742.824,2148.75C737.49,2149.35 732.157,2149.96 726.824,2150.57C726.776,2153.7 726.714,2156.76 727.141,2159.88L727.609,2162.01L728.164,2164.59C728.651,2166.79 729.127,2168.99 729.597,2171.19C730.173,2173.89 730.754,2176.59 731.342,2179.28C731.802,2181.39 732.261,2183.5 732.717,2185.61C734.145,2192.23 735.573,2198.84 737.394,2205.36C738.67,2209.89 739.7,2214.44 740.662,2219.05C742.165,2226.3 743.66,2233.5 745.887,2240.57C746.915,2243.7 747.893,2246.82 748.75,2250.01C751.863,2262.08 755.196,2274.23 759.824,2285.82C760.962,2288.51 762.069,2291.2 763.121,2293.93C768.11,2306.91 773.606,2320.98 782.824,2331.57C791.424,2340.05 800.761,2344.06 812.861,2344.07L816.012,2344C826.623,2344.08 836.948,2342.79 847.453,2341.41C852.607,2340.72 857.764,2340.07 862.924,2339.44C864.932,2339.19 866.94,2338.94 868.949,2338.69L878.012,2337.57C888.838,2336.23 899.663,2334.89 910.468,2333.39L913.187,2333C919.036,2332.19 924.819,2331.22 930.604,2330.03L932.824,2329.57C943.923,2327.34 954.939,2325.37 965.078,2320.14L967.824,2318.57C972.546,2315.87 976.502,2312.87 980.383,2309.05C999.588,2287.65 1003.88,2257.29 1003.96,2229.6L1003.96,2226.14L1003.96,2218.6C1003.95,2214.71 1003.95,2210.82 1003.95,2206.94C1003.97,2195.7 1004.04,2184.46 1003.51,2173.23L1003.38,2170.86C1003.25,2168.42 1003.07,2166.01 1002.82,2163.57C1001.62,2161.47 1001.62,2161.47 1001.58,2158.43C1000.82,2142.62 998.53,2127.15 995.824,2111.57ZM720.824,613.567C713.125,627.839 713.125,627.839 693.926,677.559C692.556,681.109 691.19,684.659 689.768,688.189C683.937,702.504 678.865,717.12 673.885,731.748L673.012,734.317C665.341,756.846 657.872,779.422 651.102,802.241L650.449,804.442C648.032,812.545 645.747,820.645 643.847,828.887C642.65,834.132 641.371,839.341 639.968,844.535C637.374,854.124 635.219,863.747 633.313,873.496C632.98,875.202 632.646,876.908 632.309,878.614C629.481,892.938 626.75,907.278 624.31,921.674L623.824,924.567C616.694,966.413 613.944,1009.17 612.824,1051.57C624.531,1049.35 635.613,1046.17 646.637,1041.63C651.327,1039.68 656.12,1038.13 660.949,1036.57C665.416,1035.16 669.694,1033.71 673.867,1031.57C677.805,1029.52 681.833,1027.99 686.012,1026.5C689.58,1025.24 693.051,1024.02 696.332,1022.1C698.964,1020.48 701.619,1019.25 704.446,1018.02L706.512,1017.13C711.15,1015.11 715.799,1013.15 720.512,1011.32C722.906,1010.42 724.983,1009.47 727.187,1008.16C729.842,1006.51 729.842,1006.51 732.793,1005.05C754.864,994.211 776.637,982.929 797.789,970.378L800.824,968.567C810.743,962.651 821.199,956.98 829.937,949.356L831.824,947.567C833.784,945.867 835.339,944.285 836.836,942.164C840.53,932.453 840.53,932.453 835.056,905.563C833.742,899.193 832.373,892.833 831.295,886.419C830.442,881.116 829.525,875.886 828.227,870.673L827.637,868.379C822.319,847.508 816.592,826.691 809.051,806.497C807.647,802.815 806.327,799.124 805.097,795.379C797.67,772.629 789.216,750.424 779.659,728.482L778.824,726.567C764.595,693.89 749.299,661.857 732.765,630.281C732.117,629.043 731.469,627.806 730.824,626.567L729.101,623.173L727.543,620.168C725.745,616.645 724.551,615.017 720.824,613.567Z" style="fill:rgb(253,253,253);"/>
    </g>
</svg>
